<?xml version="1.0" encoding="UTF-8" standalone="no"?>
<!DOCTYPE svg PUBLIC "-//W3C//DTD SVG 1.1//EN"
 "http://www.w3.org/Graphics/SVG/1.1/DTD/svg11.dtd">
<!-- Generated by graphviz version 2.38.0 (20140413.2041)
 -->
<!-- Title: structs Pages: 1 -->
<svg width="1613pt" height="1850pt"
 viewBox="0.00 0.00 1612.50 1850.00" xmlns="http://www.w3.org/2000/svg" xmlns:xlink="http://www.w3.org/1999/xlink">
<g id="graph0" class="graph" transform="scale(1 1) rotate(0) translate(4 1846)">
<title>structs</title>
<polygon fill="white" stroke="none" points="-4,4 -4,-1846 1608.5,-1846 1608.5,4 -4,4"/>
<!-- AbstractEntry -->
<g id="node1" class="node"><title>AbstractEntry</title>
<polygon fill="none" stroke="blue" points="412.5,-796.5 412.5,-872.5 580.5,-872.5 580.5,-796.5 412.5,-796.5"/>
<text text-anchor="middle" x="496.5" y="-857.3" font-family="Times,serif" font-size="14.00">abstract class AbstractEntry</text>
<polyline fill="none" stroke="blue" points="412.5,-849.5 580.5,-849.5 "/>
<text text-anchor="middle" x="496.5" y="-834.3" font-family="Times,serif" font-size="14.00">getMenu</text>
<text text-anchor="middle" x="496.5" y="-819.3" font-family="Times,serif" font-size="14.00">setMenu</text>
<text text-anchor="middle" x="496.5" y="-804.3" font-family="Times,serif" font-size="14.00">getType</text>
</g>
<!-- AbstractItem -->
<g id="node4" class="node"><title>AbstractItem</title>
<polygon fill="none" stroke="blue" points="267.5,-338.5 267.5,-714.5 431.5,-714.5 431.5,-338.5 267.5,-338.5"/>
<text text-anchor="middle" x="349.5" y="-699.3" font-family="Times,serif" font-size="14.00">abstract class AbstractItem</text>
<polyline fill="none" stroke="blue" points="267.5,-691.5 431.5,-691.5 "/>
<text text-anchor="middle" x="349.5" y="-676.3" font-family="Times,serif" font-size="14.00">getContent</text>
<text text-anchor="middle" x="349.5" y="-661.3" font-family="Times,serif" font-size="14.00">getId</text>
<text text-anchor="middle" x="349.5" y="-646.3" font-family="Times,serif" font-size="14.00">press</text>
<text text-anchor="middle" x="349.5" y="-631.3" font-family="Times,serif" font-size="14.00">protected executeAction</text>
<text text-anchor="middle" x="349.5" y="-616.3" font-family="Times,serif" font-size="14.00">abstract executeCallbacks_</text>
<text text-anchor="middle" x="349.5" y="-601.3" font-family="Times,serif" font-size="14.00">registerCallback</text>
<text text-anchor="middle" x="349.5" y="-586.3" font-family="Times,serif" font-size="14.00">unregisterCallback</text>
<text text-anchor="middle" x="349.5" y="-571.3" font-family="Times,serif" font-size="14.00">mousedown</text>
<text text-anchor="middle" x="349.5" y="-556.3" font-family="Times,serif" font-size="14.00">mouseover</text>
<text text-anchor="middle" x="349.5" y="-541.3" font-family="Times,serif" font-size="14.00">mouseout</text>
<text text-anchor="middle" x="349.5" y="-526.3" font-family="Times,serif" font-size="14.00">generateHtml</text>
<text text-anchor="middle" x="349.5" y="-511.3" font-family="Times,serif" font-size="14.00">protected activate</text>
<text text-anchor="middle" x="349.5" y="-496.3" font-family="Times,serif" font-size="14.00">protected deactivate</text>
<text text-anchor="middle" x="349.5" y="-481.3" font-family="Times,serif" font-size="14.00">focus</text>
<text text-anchor="middle" x="349.5" y="-466.3" font-family="Times,serif" font-size="14.00">unfocus</text>
<text text-anchor="middle" x="349.5" y="-451.3" font-family="Times,serif" font-size="14.00">escape</text>
<text text-anchor="middle" x="349.5" y="-436.3" font-family="Times,serif" font-size="14.00">up</text>
<text text-anchor="middle" x="349.5" y="-421.3" font-family="Times,serif" font-size="14.00">down</text>
<text text-anchor="middle" x="349.5" y="-406.3" font-family="Times,serif" font-size="14.00">left</text>
<text text-anchor="middle" x="349.5" y="-391.3" font-family="Times,serif" font-size="14.00">right</text>
<text text-anchor="middle" x="349.5" y="-376.3" font-family="Times,serif" font-size="14.00">space</text>
<text text-anchor="middle" x="349.5" y="-361.3" font-family="Times,serif" font-size="14.00">disable</text>
<text text-anchor="middle" x="349.5" y="-346.3" font-family="Times,serif" font-size="14.00">enable</text>
</g>
<!-- AbstractEntry&#45;&gt;AbstractItem -->
<g id="edge3" class="edge"><title>AbstractEntry&#45;&gt;AbstractItem</title>
<path fill="none" stroke="black" d="M471.612,-787.261C464.948,-774.599 457.837,-760.828 451.5,-748 444.914,-734.67 438.208,-720.83 431.54,-706.874"/>
<polygon fill="black" stroke="black" points="468.599,-789.052 476.368,-796.256 474.787,-785.78 468.599,-789.052"/>
<text text-anchor="middle" x="472.5" y="-736.8" font-family="Times,serif" font-size="14.00">extends</text>
</g>
<!-- Rule -->
<g id="node23" class="node"><title>Rule</title>
<polygon fill="none" stroke="black" points="453,-496 453,-557 544,-557 544,-496 453,-496"/>
<text text-anchor="middle" x="498.5" y="-541.8" font-family="Times,serif" font-size="14.00">class Rule</text>
<polyline fill="none" stroke="black" points="453,-534 544,-534 "/>
<text text-anchor="middle" x="498.5" y="-518.8" font-family="Times,serif" font-size="14.00">generateHtml</text>
<text text-anchor="middle" x="498.5" y="-503.8" font-family="Times,serif" font-size="14.00">addEvents</text>
</g>
<!-- AbstractEntry&#45;&gt;Rule -->
<g id="edge22" class="edge"><title>AbstractEntry&#45;&gt;Rule</title>
<path fill="none" stroke="black" d="M496.81,-786.075C497.228,-722.166 497.959,-610.296 498.306,-557.152"/>
<polygon fill="black" stroke="black" points="493.309,-786.262 496.743,-796.284 500.309,-786.307 493.309,-786.262"/>
<text text-anchor="middle" x="518.5" y="-736.8" font-family="Times,serif" font-size="14.00">extends</text>
</g>
<!-- MenuElement -->
<g id="node2" class="node"><title>MenuElement</title>
<polygon fill="none" stroke="blue" points="677.5,-954.5 677.5,-1075.5 847.5,-1075.5 847.5,-954.5 677.5,-954.5"/>
<text text-anchor="middle" x="762.5" y="-1060.3" font-family="Times,serif" font-size="14.00">abstract class MenuElement</text>
<polyline fill="none" stroke="blue" points="677.5,-1052.5 847.5,-1052.5 "/>
<text text-anchor="middle" x="762.5" y="-1037.3" font-family="Times,serif" font-size="14.00">addAttributes</text>
<text text-anchor="middle" x="762.5" y="-1022.3" font-family="Times,serif" font-size="14.00">getHtml</text>
<text text-anchor="middle" x="762.5" y="-1007.3" font-family="Times,serif" font-size="14.00">setHtml</text>
<text text-anchor="middle" x="762.5" y="-992.3" font-family="Times,serif" font-size="14.00">generateHtml</text>
<text text-anchor="middle" x="762.5" y="-977.3" font-family="Times,serif" font-size="14.00">focus</text>
<text text-anchor="middle" x="762.5" y="-962.3" font-family="Times,serif" font-size="14.00">unfocus</text>
</g>
<!-- MenuElement&#45;&gt;AbstractEntry -->
<g id="edge1" class="edge"><title>MenuElement&#45;&gt;AbstractEntry</title>
<path fill="none" stroke="black" d="M668.487,-950.912C629.515,-924.76 585.644,-895.32 551.965,-872.72"/>
<polygon fill="black" stroke="black" points="666.984,-954.119 677.238,-956.785 670.885,-948.306 666.984,-954.119"/>
<text text-anchor="middle" x="666.5" y="-924.8" font-family="Times,serif" font-size="14.00">extends</text>
</g>
<!-- AbstractPostable -->
<g id="node7" class="node"><title>AbstractPostable</title>
<polygon fill="none" stroke="blue" points="759.5,-789 759.5,-880 943.5,-880 943.5,-789 759.5,-789"/>
<text text-anchor="middle" x="851.5" y="-864.8" font-family="Times,serif" font-size="14.00">abstract class AbstractPostable</text>
<polyline fill="none" stroke="blue" points="759.5,-857 943.5,-857 "/>
<text text-anchor="middle" x="851.5" y="-841.8" font-family="Times,serif" font-size="14.00">isPosted</text>
<text text-anchor="middle" x="851.5" y="-826.8" font-family="Times,serif" font-size="14.00">post</text>
<text text-anchor="middle" x="851.5" y="-811.8" font-family="Times,serif" font-size="14.00">unpost</text>
<text text-anchor="middle" x="851.5" y="-796.8" font-family="Times,serif" font-size="14.00">protected abstract display</text>
</g>
<!-- MenuElement&#45;&gt;AbstractPostable -->
<g id="edge9" class="edge"><title>MenuElement&#45;&gt;AbstractPostable</title>
<path fill="none" stroke="black" d="M794.688,-945.115C798.616,-936.962 802.615,-928.779 806.5,-921 813.17,-907.644 820.642,-893.241 827.551,-880.133"/>
<polygon fill="black" stroke="black" points="791.46,-943.753 790.293,-954.283 797.772,-946.779 791.46,-943.753"/>
<text text-anchor="middle" x="827.5" y="-924.8" font-family="Times,serif" font-size="14.00">extends</text>
</g>
<!-- Entry -->
<g id="node3" class="node"><title>Entry</title>
<polygon fill="none" stroke="green" points="432.5,-977 432.5,-1053 530.5,-1053 530.5,-977 432.5,-977"/>
<text text-anchor="middle" x="481.5" y="-1037.8" font-family="Times,serif" font-size="14.00">interface Entry</text>
<polyline fill="none" stroke="green" points="432.5,-1030 530.5,-1030 "/>
<text text-anchor="middle" x="481.5" y="-1014.8" font-family="Times,serif" font-size="14.00">getMenu</text>
<text text-anchor="middle" x="481.5" y="-999.8" font-family="Times,serif" font-size="14.00">setMenu</text>
<text text-anchor="middle" x="481.5" y="-984.8" font-family="Times,serif" font-size="14.00">getType</text>
</g>
<!-- Entry&#45;&gt;AbstractEntry -->
<g id="edge2" class="edge"><title>Entry&#45;&gt;AbstractEntry</title>
<path fill="none" stroke="black" d="M485.49,-966.524C487.963,-937.087 491.095,-899.821 493.385,-872.564"/>
<polygon fill="black" stroke="black" points="481.994,-966.323 484.644,-976.581 488.97,-966.909 481.994,-966.323"/>
<text text-anchor="middle" x="522" y="-924.8" font-family="Times,serif" font-size="14.00">implements</text>
</g>
<!-- Item -->
<g id="node5" class="node"><title>Item</title>
<polygon fill="none" stroke="green" points="300,-766.5 300,-902.5 393,-902.5 393,-766.5 300,-766.5"/>
<text text-anchor="middle" x="346.5" y="-887.3" font-family="Times,serif" font-size="14.00">interface Item</text>
<polyline fill="none" stroke="green" points="300,-879.5 393,-879.5 "/>
<text text-anchor="middle" x="346.5" y="-864.3" font-family="Times,serif" font-size="14.00">getContent</text>
<text text-anchor="middle" x="346.5" y="-849.3" font-family="Times,serif" font-size="14.00">getId</text>
<text text-anchor="middle" x="346.5" y="-834.3" font-family="Times,serif" font-size="14.00">press</text>
<text text-anchor="middle" x="346.5" y="-819.3" font-family="Times,serif" font-size="14.00">focus</text>
<text text-anchor="middle" x="346.5" y="-804.3" font-family="Times,serif" font-size="14.00">unfocus</text>
<text text-anchor="middle" x="346.5" y="-789.3" font-family="Times,serif" font-size="14.00">disable</text>
<text text-anchor="middle" x="346.5" y="-774.3" font-family="Times,serif" font-size="14.00">enable</text>
</g>
<!-- Entry&#45;&gt;Item -->
<g id="edge14" class="edge"><title>Entry&#45;&gt;Item</title>
<path fill="none" stroke="black" d="M447.095,-968.508C430.692,-946.821 410.826,-920.553 393.094,-897.108"/>
<polygon fill="black" stroke="black" points="444.376,-970.716 453.2,-976.581 449.959,-966.493 444.376,-970.716"/>
<text text-anchor="middle" x="443.5" y="-924.8" font-family="Times,serif" font-size="14.00">extends</text>
</g>
<!-- Checkbox -->
<g id="node18" class="node"><title>Checkbox</title>
<polygon fill="none" stroke="black" points="0,-90.5 0,-196.5 101,-196.5 101,-90.5 0,-90.5"/>
<text text-anchor="middle" x="50.5" y="-181.3" font-family="Times,serif" font-size="14.00">class Checkbox</text>
<polyline fill="none" stroke="black" points="0,-173.5 101,-173.5 "/>
<text text-anchor="middle" x="50.5" y="-158.3" font-family="Times,serif" font-size="14.00">executeAction</text>
<text text-anchor="middle" x="50.5" y="-143.3" font-family="Times,serif" font-size="14.00">generateHtml</text>
<text text-anchor="middle" x="50.5" y="-128.3" font-family="Times,serif" font-size="14.00">register</text>
<text text-anchor="middle" x="50.5" y="-113.3" font-family="Times,serif" font-size="14.00">unregister</text>
<text text-anchor="middle" x="50.5" y="-98.3" font-family="Times,serif" font-size="14.00">update</text>
</g>
<!-- AbstractItem&#45;&gt;Checkbox -->
<g id="edge16" class="edge"><title>AbstractItem&#45;&gt;Checkbox</title>
<path fill="none" stroke="black" d="M261.727,-381.458C238.209,-346.963 214.598,-316.695 197.5,-305 168.849,-285.403 148.696,-308.571 121.5,-287 93.023,-264.413 75.0677,-227.431 64.3386,-196.802"/>
<polygon fill="black" stroke="black" points="258.882,-383.499 267.378,-389.828 264.683,-379.582 258.882,-383.499"/>
<text text-anchor="middle" x="235.5" y="-308.8" font-family="Times,serif" font-size="14.00">extends</text>
</g>
<!-- Command -->
<g id="node20" class="node"><title>Command</title>
<polygon fill="none" stroke="black" points="505.5,-120.5 505.5,-166.5 609.5,-166.5 609.5,-120.5 505.5,-120.5"/>
<text text-anchor="middle" x="557.5" y="-151.3" font-family="Times,serif" font-size="14.00">class Command</text>
<polyline fill="none" stroke="black" points="505.5,-143.5 609.5,-143.5 "/>
<text text-anchor="middle" x="557.5" y="-128.3" font-family="Times,serif" font-size="14.00">executeAction</text>
</g>
<!-- AbstractItem&#45;&gt;Command -->
<g id="edge18" class="edge"><title>AbstractItem&#45;&gt;Command</title>
<path fill="none" stroke="black" d="M437.575,-346.276C439.527,-343.474 441.503,-340.712 443.5,-338 462.882,-311.676 477.919,-313.896 496.5,-287 523.268,-248.253 541.944,-195.89 551.083,-166.633"/>
<polygon fill="black" stroke="black" points="434.507,-344.564 431.785,-354.803 440.298,-348.496 434.507,-344.564"/>
<text text-anchor="middle" x="500.5" y="-308.8" font-family="Times,serif" font-size="14.00">extends</text>
</g>
<!-- Label -->
<g id="node21" class="node"><title>Label</title>
<polygon fill="none" stroke="black" points="280,-120.5 280,-166.5 371,-166.5 371,-120.5 280,-120.5"/>
<text text-anchor="middle" x="325.5" y="-151.3" font-family="Times,serif" font-size="14.00">class Label</text>
<polyline fill="none" stroke="black" points="280,-143.5 371,-143.5 "/>
<text text-anchor="middle" x="325.5" y="-128.3" font-family="Times,serif" font-size="14.00">generateHtml</text>
</g>
<!-- AbstractItem&#45;&gt;Label -->
<g id="edge19" class="edge"><title>AbstractItem&#45;&gt;Label</title>
<path fill="none" stroke="black" d="M337.079,-328.314C332.976,-263.185 328.939,-199.099 326.889,-166.557"/>
<polygon fill="black" stroke="black" points="333.589,-328.588 337.711,-338.348 340.575,-328.148 333.589,-328.588"/>
<text text-anchor="middle" x="357.5" y="-308.8" font-family="Times,serif" font-size="14.00">extends</text>
</g>
<!-- Radio -->
<g id="node22" class="node"><title>Radio</title>
<polygon fill="none" stroke="black" points="131,-75.5 131,-211.5 256,-211.5 256,-75.5 131,-75.5"/>
<text text-anchor="middle" x="193.5" y="-196.3" font-family="Times,serif" font-size="14.00">class Radio</text>
<polyline fill="none" stroke="black" points="131,-188.5 256,-188.5 "/>
<text text-anchor="middle" x="193.5" y="-173.3" font-family="Times,serif" font-size="14.00">executeAction</text>
<text text-anchor="middle" x="193.5" y="-158.3" font-family="Times,serif" font-size="14.00">generateHtml</text>
<text text-anchor="middle" x="193.5" y="-143.3" font-family="Times,serif" font-size="14.00">register</text>
<text text-anchor="middle" x="193.5" y="-128.3" font-family="Times,serif" font-size="14.00">unregister</text>
<text text-anchor="middle" x="193.5" y="-113.3" font-family="Times,serif" font-size="14.00">update</text>
<text text-anchor="middle" x="193.5" y="-98.3" font-family="Times,serif" font-size="14.00">abstract updateAria</text>
<text text-anchor="middle" x="193.5" y="-83.3" font-family="Times,serif" font-size="14.00">abstract updateSpan</text>
</g>
<!-- AbstractItem&#45;&gt;Radio -->
<g id="edge20" class="edge"><title>AbstractItem&#45;&gt;Radio</title>
<path fill="none" stroke="black" d="M272.238,-328.799C268.967,-320.753 265.712,-312.794 262.5,-305 249.845,-274.294 235.392,-240.491 222.995,-211.859"/>
<polygon fill="black" stroke="black" points="269.081,-330.33 276.083,-338.282 275.568,-327.699 269.081,-330.33"/>
<text text-anchor="middle" x="288.5" y="-308.8" font-family="Times,serif" font-size="14.00">extends</text>
</g>
<!-- Submenu -->
<g id="node24" class="node"><title>Submenu</title>
<polygon fill="none" stroke="black" points="389.5,-53 389.5,-234 487.5,-234 487.5,-53 389.5,-53"/>
<text text-anchor="middle" x="438.5" y="-218.8" font-family="Times,serif" font-size="14.00">class Submenu</text>
<polyline fill="none" stroke="black" points="389.5,-211 487.5,-211 "/>
<text text-anchor="middle" x="438.5" y="-195.8" font-family="Times,serif" font-size="14.00">setSubmenu</text>
<text text-anchor="middle" x="438.5" y="-180.8" font-family="Times,serif" font-size="14.00">getSubmenu</text>
<text text-anchor="middle" x="438.5" y="-165.8" font-family="Times,serif" font-size="14.00">mouseover</text>
<text text-anchor="middle" x="438.5" y="-150.8" font-family="Times,serif" font-size="14.00">mouseout</text>
<text text-anchor="middle" x="438.5" y="-135.8" font-family="Times,serif" font-size="14.00">unfocus</text>
<text text-anchor="middle" x="438.5" y="-120.8" font-family="Times,serif" font-size="14.00">focus</text>
<text text-anchor="middle" x="438.5" y="-105.8" font-family="Times,serif" font-size="14.00">executeAction</text>
<text text-anchor="middle" x="438.5" y="-90.8" font-family="Times,serif" font-size="14.00">generateHtml</text>
<text text-anchor="middle" x="438.5" y="-75.8" font-family="Times,serif" font-size="14.00">left</text>
<text text-anchor="middle" x="438.5" y="-60.8" font-family="Times,serif" font-size="14.00">right</text>
</g>
<!-- AbstractItem&#45;&gt;Submenu -->
<g id="edge23" class="edge"><title>AbstractItem&#45;&gt;Submenu</title>
<path fill="none" stroke="black" d="M395.505,-328.559C403.224,-295.514 410.883,-262.727 417.55,-234.183"/>
<polygon fill="black" stroke="black" points="392.084,-327.814 393.218,-338.348 398.901,-329.407 392.084,-327.814"/>
<text text-anchor="middle" x="420.5" y="-308.8" font-family="Times,serif" font-size="14.00">extends</text>
</g>
<!-- Item&#45;&gt;AbstractItem -->
<g id="edge4" class="edge"><title>Item&#45;&gt;AbstractItem</title>
<path fill="none" stroke="black" d="M346.385,-756.459C346.408,-748.536 346.444,-740.606 346.5,-733 346.544,-726.934 346.596,-720.768 346.654,-714.541"/>
<polygon fill="black" stroke="black" points="342.885,-756.458 346.364,-766.466 349.885,-756.473 342.885,-756.458"/>
<text text-anchor="middle" x="379" y="-736.8" font-family="Times,serif" font-size="14.00">implements</text>
</g>
<!-- AbstractMenu -->
<g id="node6" class="node"><title>AbstractMenu</title>
<polygon fill="none" stroke="blue" points="995.5,-436 995.5,-617 1165.5,-617 1165.5,-436 995.5,-436"/>
<text text-anchor="middle" x="1080.5" y="-601.8" font-family="Times,serif" font-size="14.00">abstract class AbstractMenu</text>
<polyline fill="none" stroke="blue" points="995.5,-594 1165.5,-594 "/>
<text text-anchor="middle" x="1080.5" y="-578.8" font-family="Times,serif" font-size="14.00">getItems</text>
<text text-anchor="middle" x="1080.5" y="-563.8" font-family="Times,serif" font-size="14.00">getPool</text>
<text text-anchor="middle" x="1080.5" y="-548.8" font-family="Times,serif" font-size="14.00">getFocused</text>
<text text-anchor="middle" x="1080.5" y="-533.8" font-family="Times,serif" font-size="14.00">setFocused</text>
<text text-anchor="middle" x="1080.5" y="-518.8" font-family="Times,serif" font-size="14.00">up</text>
<text text-anchor="middle" x="1080.5" y="-503.8" font-family="Times,serif" font-size="14.00">down</text>
<text text-anchor="middle" x="1080.5" y="-488.8" font-family="Times,serif" font-size="14.00">generateHtml</text>
<text text-anchor="middle" x="1080.5" y="-473.8" font-family="Times,serif" font-size="14.00">unpostSubmenus</text>
<text text-anchor="middle" x="1080.5" y="-458.8" font-family="Times,serif" font-size="14.00">unpost</text>
<text text-anchor="middle" x="1080.5" y="-443.8" font-family="Times,serif" font-size="14.00">find</text>
</g>
<!-- ContextMenu -->
<g id="node15" class="node"><title>ContextMenu</title>
<polygon fill="none" stroke="black" points="1083.5,-0.5 1083.5,-286.5 1205.5,-286.5 1205.5,-0.5 1083.5,-0.5"/>
<text text-anchor="middle" x="1144.5" y="-271.3" font-family="Times,serif" font-size="14.00">class ContextMenu</text>
<polyline fill="none" stroke="black" points="1083.5,-263.5 1205.5,-263.5 "/>
<text text-anchor="middle" x="1144.5" y="-248.3" font-family="Times,serif" font-size="14.00">generateHtml</text>
<text text-anchor="middle" x="1144.5" y="-233.3" font-family="Times,serif" font-size="14.00">display</text>
<text text-anchor="middle" x="1144.5" y="-218.3" font-family="Times,serif" font-size="14.00">escape</text>
<text text-anchor="middle" x="1144.5" y="-203.3" font-family="Times,serif" font-size="14.00">unpost</text>
<text text-anchor="middle" x="1144.5" y="-188.3" font-family="Times,serif" font-size="14.00">left</text>
<text text-anchor="middle" x="1144.5" y="-173.3" font-family="Times,serif" font-size="14.00">right</text>
<text text-anchor="middle" x="1144.5" y="-158.3" font-family="Times,serif" font-size="14.00">move_</text>
<text text-anchor="middle" x="1144.5" y="-143.3" font-family="Times,serif" font-size="14.00">getFrame</text>
<text text-anchor="middle" x="1144.5" y="-128.3" font-family="Times,serif" font-size="14.00">getStore</text>
<text text-anchor="middle" x="1144.5" y="-113.3" font-family="Times,serif" font-size="14.00">post</text>
<text text-anchor="middle" x="1144.5" y="-98.3" font-family="Times,serif" font-size="14.00">post</text>
<text text-anchor="middle" x="1144.5" y="-83.3" font-family="Times,serif" font-size="14.00">post</text>
<text text-anchor="middle" x="1144.5" y="-68.3" font-family="Times,serif" font-size="14.00">post</text>
<text text-anchor="middle" x="1144.5" y="-53.3" font-family="Times,serif" font-size="14.00">post</text>
<text text-anchor="middle" x="1144.5" y="-38.3" font-family="Times,serif" font-size="14.00">registerWidget</text>
<text text-anchor="middle" x="1144.5" y="-23.3" font-family="Times,serif" font-size="14.00">unregisterWidget</text>
<text text-anchor="middle" x="1144.5" y="-8.3" font-family="Times,serif" font-size="14.00">unpostWidgets</text>
</g>
<!-- AbstractMenu&#45;&gt;ContextMenu -->
<g id="edge12" class="edge"><title>AbstractMenu&#45;&gt;ContextMenu</title>
<path fill="none" stroke="black" d="M1097.28,-425.633C1104.41,-383.157 1112.86,-332.844 1120.63,-286.605"/>
<polygon fill="black" stroke="black" points="1093.79,-425.249 1095.59,-435.691 1100.69,-426.409 1093.79,-425.249"/>
<text text-anchor="middle" x="1136.5" y="-308.8" font-family="Times,serif" font-size="14.00">extends</text>
</g>
<!-- SubMenu -->
<g id="node28" class="node"><title>SubMenu</title>
<polygon fill="none" stroke="black" points="965.5,-98 965.5,-189 1065.5,-189 1065.5,-98 965.5,-98"/>
<text text-anchor="middle" x="1015.5" y="-173.8" font-family="Times,serif" font-size="14.00">class SubMenu</text>
<polyline fill="none" stroke="black" points="965.5,-166 1065.5,-166 "/>
<text text-anchor="middle" x="1015.5" y="-150.8" font-family="Times,serif" font-size="14.00">getAnchor</text>
<text text-anchor="middle" x="1015.5" y="-135.8" font-family="Times,serif" font-size="14.00">getBaseMenu</text>
<text text-anchor="middle" x="1015.5" y="-120.8" font-family="Times,serif" font-size="14.00">post</text>
<text text-anchor="middle" x="1015.5" y="-105.8" font-family="Times,serif" font-size="14.00">display</text>
</g>
<!-- AbstractMenu&#45;&gt;SubMenu -->
<g id="edge27" class="edge"><title>AbstractMenu&#45;&gt;SubMenu</title>
<path fill="none" stroke="black" d="M1063.44,-425.527C1050.37,-348.881 1032.95,-246.76 1023.11,-189.093"/>
<polygon fill="black" stroke="black" points="1060.05,-426.422 1065.18,-435.691 1066.95,-425.245 1060.05,-426.422"/>
<text text-anchor="middle" x="1064.5" y="-308.8" font-family="Times,serif" font-size="14.00">extends</text>
</g>
<!-- AbstractPostable&#45;&gt;AbstractMenu -->
<g id="edge5" class="edge"><title>AbstractPostable&#45;&gt;AbstractMenu</title>
<path fill="none" stroke="black" d="M919.751,-782.457C942.806,-763.036 967.492,-739.616 986.5,-715 1009.31,-685.458 1028.93,-649.514 1044.25,-617.031"/>
<polygon fill="black" stroke="black" points="917.465,-779.805 912.006,-788.885 921.936,-785.192 917.465,-779.805"/>
<text text-anchor="middle" x="991.5" y="-736.8" font-family="Times,serif" font-size="14.00">extends</text>
</g>
<!-- CloseButton -->
<g id="node14" class="node"><title>CloseButton</title>
<polygon fill="none" stroke="black" points="685.5,-466 685.5,-587 799.5,-587 799.5,-466 685.5,-466"/>
<text text-anchor="middle" x="742.5" y="-571.8" font-family="Times,serif" font-size="14.00">class CloseButton</text>
<polyline fill="none" stroke="black" points="685.5,-564 799.5,-564 "/>
<text text-anchor="middle" x="742.5" y="-548.8" font-family="Times,serif" font-size="14.00">generateHtml</text>
<text text-anchor="middle" x="742.5" y="-533.8" font-family="Times,serif" font-size="14.00">display</text>
<text text-anchor="middle" x="742.5" y="-518.8" font-family="Times,serif" font-size="14.00">unpost</text>
<text text-anchor="middle" x="742.5" y="-503.8" font-family="Times,serif" font-size="14.00">keydown</text>
<text text-anchor="middle" x="742.5" y="-488.8" font-family="Times,serif" font-size="14.00">space</text>
<text text-anchor="middle" x="742.5" y="-473.8" font-family="Times,serif" font-size="14.00">mousedown</text>
</g>
<!-- AbstractPostable&#45;&gt;CloseButton -->
<g id="edge11" class="edge"><title>AbstractPostable&#45;&gt;CloseButton</title>
<path fill="none" stroke="black" d="M831.029,-779.355C827.158,-768.963 823.173,-758.156 819.5,-748 799.847,-693.664 778.215,-631.497 762.897,-587.054"/>
<polygon fill="black" stroke="black" points="827.761,-780.608 834.539,-788.751 834.318,-778.159 827.761,-780.608"/>
<text text-anchor="middle" x="840.5" y="-736.8" font-family="Times,serif" font-size="14.00">extends</text>
</g>
<!-- Info -->
<g id="node17" class="node"><title>Info</title>
<polygon fill="none" stroke="black" points="817.5,-413.5 817.5,-639.5 977.5,-639.5 977.5,-413.5 817.5,-413.5"/>
<text text-anchor="middle" x="897.5" y="-624.3" font-family="Times,serif" font-size="14.00">class Info</text>
<polyline fill="none" stroke="black" points="817.5,-616.5 977.5,-616.5 "/>
<text text-anchor="middle" x="897.5" y="-601.3" font-family="Times,serif" font-size="14.00">attachMenu</text>
<text text-anchor="middle" x="897.5" y="-586.3" font-family="Times,serif" font-size="14.00">getHtml</text>
<text text-anchor="middle" x="897.5" y="-571.3" font-family="Times,serif" font-size="14.00">generateHtml</text>
<text text-anchor="middle" x="897.5" y="-556.3" font-family="Times,serif" font-size="14.00">abstract generateClose</text>
<text text-anchor="middle" x="897.5" y="-541.3" font-family="Times,serif" font-size="14.00">abstract generateTitle</text>
<text text-anchor="middle" x="897.5" y="-526.3" font-family="Times,serif" font-size="14.00">abstract generateContent</text>
<text text-anchor="middle" x="897.5" y="-511.3" font-family="Times,serif" font-size="14.00">abstract generateSignature</text>
<text text-anchor="middle" x="897.5" y="-496.3" font-family="Times,serif" font-size="14.00">post</text>
<text text-anchor="middle" x="897.5" y="-481.3" font-family="Times,serif" font-size="14.00">display</text>
<text text-anchor="middle" x="897.5" y="-466.3" font-family="Times,serif" font-size="14.00">click</text>
<text text-anchor="middle" x="897.5" y="-451.3" font-family="Times,serif" font-size="14.00">keydown</text>
<text text-anchor="middle" x="897.5" y="-436.3" font-family="Times,serif" font-size="14.00">escape</text>
<text text-anchor="middle" x="897.5" y="-421.3" font-family="Times,serif" font-size="14.00">unpost</text>
</g>
<!-- AbstractPostable&#45;&gt;Info -->
<g id="edge13" class="edge"><title>AbstractPostable&#45;&gt;Info</title>
<path fill="none" stroke="black" d="M859.741,-778.681C865.548,-740.049 873.529,-686.959 880.658,-639.537"/>
<polygon fill="black" stroke="black" points="856.264,-778.268 858.238,-788.677 863.186,-779.309 856.264,-778.268"/>
<text text-anchor="middle" x="887.5" y="-736.8" font-family="Times,serif" font-size="14.00">extends</text>
</g>
<!-- Popup -->
<g id="node27" class="node"><title>Popup</title>
<polygon fill="none" stroke="black" points="562,-466 562,-587 667,-587 667,-466 562,-466"/>
<text text-anchor="middle" x="614.5" y="-571.8" font-family="Times,serif" font-size="14.00">class Popup</text>
<polyline fill="none" stroke="black" points="562,-564 667,-564 "/>
<text text-anchor="middle" x="614.5" y="-548.8" font-family="Times,serif" font-size="14.00">attachMenu</text>
<text text-anchor="middle" x="614.5" y="-533.8" font-family="Times,serif" font-size="14.00">post</text>
<text text-anchor="middle" x="614.5" y="-518.8" font-family="Times,serif" font-size="14.00">display</text>
<text text-anchor="middle" x="614.5" y="-503.8" font-family="Times,serif" font-size="14.00">generateContent</text>
<text text-anchor="middle" x="614.5" y="-488.8" font-family="Times,serif" font-size="14.00">resize</text>
<text text-anchor="middle" x="614.5" y="-473.8" font-family="Times,serif" font-size="14.00">unpost</text>
</g>
<!-- AbstractPostable&#45;&gt;Popup -->
<g id="edge26" class="edge"><title>AbstractPostable&#45;&gt;Popup</title>
<path fill="none" stroke="black" d="M753.526,-783.323C725.458,-765.019 696.958,-742.053 676.5,-715 648.169,-677.535 632.404,-626.471 623.87,-587.092"/>
<polygon fill="black" stroke="black" points="751.898,-786.436 762.214,-788.853 755.657,-780.531 751.898,-786.436"/>
<text text-anchor="middle" x="724.5" y="-736.8" font-family="Times,serif" font-size="14.00">extends</text>
</g>
<!-- Menu -->
<g id="node8" class="node"><title>Menu</title>
<polygon fill="none" stroke="green" points="982.5,-774 982.5,-895 1092.5,-895 1092.5,-774 982.5,-774"/>
<text text-anchor="middle" x="1037.5" y="-879.8" font-family="Times,serif" font-size="14.00">interface Menu</text>
<polyline fill="none" stroke="green" points="982.5,-872 1092.5,-872 "/>
<text text-anchor="middle" x="1037.5" y="-856.8" font-family="Times,serif" font-size="14.00">getItems</text>
<text text-anchor="middle" x="1037.5" y="-841.8" font-family="Times,serif" font-size="14.00">getFocused</text>
<text text-anchor="middle" x="1037.5" y="-826.8" font-family="Times,serif" font-size="14.00">setFocused</text>
<text text-anchor="middle" x="1037.5" y="-811.8" font-family="Times,serif" font-size="14.00">getPool</text>
<text text-anchor="middle" x="1037.5" y="-796.8" font-family="Times,serif" font-size="14.00">unpostSubmenus</text>
<text text-anchor="middle" x="1037.5" y="-781.8" font-family="Times,serif" font-size="14.00">find</text>
</g>
<!-- Menu&#45;&gt;AbstractMenu -->
<g id="edge6" class="edge"><title>Menu&#45;&gt;AbstractMenu</title>
<path fill="none" stroke="black" d="M1047.29,-763.864C1053.39,-720.407 1061.31,-664.035 1067.89,-617.243"/>
<polygon fill="black" stroke="black" points="1043.82,-763.384 1045.89,-773.774 1050.75,-764.358 1043.82,-763.384"/>
<text text-anchor="middle" x="1083" y="-736.8" font-family="Times,serif" font-size="14.00">implements</text>
</g>
<!-- AbstractNavigatable -->
<g id="node9" class="node"><title>AbstractNavigatable</title>
<polygon fill="none" stroke="blue" points="661,-1127.5 661,-1383.5 864,-1383.5 864,-1127.5 661,-1127.5"/>
<text text-anchor="middle" x="762.5" y="-1368.3" font-family="Times,serif" font-size="14.00">abstract class AbstractNavigatable</text>
<polyline fill="none" stroke="blue" points="661,-1360.5 864,-1360.5 "/>
<text text-anchor="middle" x="762.5" y="-1345.3" font-family="Times,serif" font-size="14.00">bubbleKey</text>
<text text-anchor="middle" x="762.5" y="-1330.3" font-family="Times,serif" font-size="14.00">keydown</text>
<text text-anchor="middle" x="762.5" y="-1315.3" font-family="Times,serif" font-size="14.00">escape</text>
<text text-anchor="middle" x="762.5" y="-1300.3" font-family="Times,serif" font-size="14.00">space</text>
<text text-anchor="middle" x="762.5" y="-1285.3" font-family="Times,serif" font-size="14.00">left</text>
<text text-anchor="middle" x="762.5" y="-1270.3" font-family="Times,serif" font-size="14.00">right</text>
<text text-anchor="middle" x="762.5" y="-1255.3" font-family="Times,serif" font-size="14.00">up</text>
<text text-anchor="middle" x="762.5" y="-1240.3" font-family="Times,serif" font-size="14.00">down</text>
<text text-anchor="middle" x="762.5" y="-1225.3" font-family="Times,serif" font-size="14.00">protected stop</text>
<text text-anchor="middle" x="762.5" y="-1210.3" font-family="Times,serif" font-size="14.00">mousedown</text>
<text text-anchor="middle" x="762.5" y="-1195.3" font-family="Times,serif" font-size="14.00">mouseup</text>
<text text-anchor="middle" x="762.5" y="-1180.3" font-family="Times,serif" font-size="14.00">mouseover</text>
<text text-anchor="middle" x="762.5" y="-1165.3" font-family="Times,serif" font-size="14.00">mouseout</text>
<text text-anchor="middle" x="762.5" y="-1150.3" font-family="Times,serif" font-size="14.00">click</text>
<text text-anchor="middle" x="762.5" y="-1135.3" font-family="Times,serif" font-size="14.00">addEvents</text>
</g>
<!-- AbstractNavigatable&#45;&gt;MenuElement -->
<g id="edge25" class="edge"><title>AbstractNavigatable&#45;&gt;MenuElement</title>
<path fill="none" stroke="black" d="M762.5,-1117.14C762.5,-1102.65 762.5,-1088.53 762.5,-1075.65"/>
<polygon fill="black" stroke="black" points="759,-1117.22 762.5,-1127.22 766,-1117.22 759,-1117.22"/>
<text text-anchor="middle" x="783.5" y="-1097.8" font-family="Times,serif" font-size="14.00">extends</text>
</g>
<!-- Navigatable -->
<g id="node10" class="node"><title>Navigatable</title>
<polygon fill="none" stroke="green" points="611,-1570.5 611,-1706.5 744,-1706.5 744,-1570.5 611,-1570.5"/>
<text text-anchor="middle" x="677.5" y="-1691.3" font-family="Times,serif" font-size="14.00">interface Navigatable</text>
<polyline fill="none" stroke="green" points="611,-1683.5 744,-1683.5 "/>
<text text-anchor="middle" x="677.5" y="-1668.3" font-family="Times,serif" font-size="14.00">keydown</text>
<text text-anchor="middle" x="677.5" y="-1653.3" font-family="Times,serif" font-size="14.00">escape</text>
<text text-anchor="middle" x="677.5" y="-1638.3" font-family="Times,serif" font-size="14.00">space</text>
<text text-anchor="middle" x="677.5" y="-1623.3" font-family="Times,serif" font-size="14.00">left</text>
<text text-anchor="middle" x="677.5" y="-1608.3" font-family="Times,serif" font-size="14.00">right</text>
<text text-anchor="middle" x="677.5" y="-1593.3" font-family="Times,serif" font-size="14.00">up</text>
<text text-anchor="middle" x="677.5" y="-1578.3" font-family="Times,serif" font-size="14.00">down</text>
</g>
<!-- Navigatable&#45;&gt;AbstractNavigatable -->
<g id="edge7" class="edge"><title>Navigatable&#45;&gt;AbstractNavigatable</title>
<path fill="none" stroke="black" d="M694.708,-1560.37C706.001,-1509.75 721.038,-1442.35 734.081,-1383.88"/>
<polygon fill="black" stroke="black" points="691.262,-1559.74 692.501,-1570.26 698.094,-1561.26 691.262,-1559.74"/>
<text text-anchor="middle" x="761" y="-1405.8" font-family="Times,serif" font-size="14.00">implements</text>
</g>
<!-- MouseNavigatable -->
<g id="node11" class="node"><title>MouseNavigatable</title>
<polygon fill="none" stroke="green" points="762.5,-1585.5 762.5,-1691.5 932.5,-1691.5 932.5,-1585.5 762.5,-1585.5"/>
<text text-anchor="middle" x="847.5" y="-1676.3" font-family="Times,serif" font-size="14.00">interface MouseNavigatable</text>
<polyline fill="none" stroke="green" points="762.5,-1668.5 932.5,-1668.5 "/>
<text text-anchor="middle" x="847.5" y="-1653.3" font-family="Times,serif" font-size="14.00">mousedown</text>
<text text-anchor="middle" x="847.5" y="-1638.3" font-family="Times,serif" font-size="14.00">mouseup</text>
<text text-anchor="middle" x="847.5" y="-1623.3" font-family="Times,serif" font-size="14.00">mouseover</text>
<text text-anchor="middle" x="847.5" y="-1608.3" font-family="Times,serif" font-size="14.00">mouseout</text>
<text text-anchor="middle" x="847.5" y="-1593.3" font-family="Times,serif" font-size="14.00">click</text>
</g>
<!-- MouseNavigatable&#45;&gt;AbstractNavigatable -->
<g id="edge8" class="edge"><title>MouseNavigatable&#45;&gt;AbstractNavigatable</title>
<path fill="none" stroke="black" d="M834.843,-1575.66C824.996,-1528.1 810.812,-1460.8 797.5,-1402 796.152,-1396.05 794.756,-1389.96 793.333,-1383.81"/>
<polygon fill="black" stroke="black" points="831.425,-1576.41 836.877,-1585.5 838.28,-1575 831.425,-1576.41"/>
<text text-anchor="middle" x="833" y="-1405.8" font-family="Times,serif" font-size="14.00">implements</text>
</g>
<!-- Postable -->
<g id="node12" class="node"><title>Postable</title>
<polygon fill="none" stroke="green" points="896,-969.5 896,-1060.5 1009,-1060.5 1009,-969.5 896,-969.5"/>
<text text-anchor="middle" x="952.5" y="-1045.3" font-family="Times,serif" font-size="14.00">interface Postable</text>
<polyline fill="none" stroke="green" points="896,-1037.5 1009,-1037.5 "/>
<text text-anchor="middle" x="952.5" y="-1022.3" font-family="Times,serif" font-size="14.00">isPosted</text>
<text text-anchor="middle" x="952.5" y="-1007.3" font-family="Times,serif" font-size="14.00">post</text>
<text text-anchor="middle" x="952.5" y="-992.3" font-family="Times,serif" font-size="14.00">post</text>
<text text-anchor="middle" x="952.5" y="-977.3" font-family="Times,serif" font-size="14.00">unpost</text>
</g>
<!-- Postable&#45;&gt;AbstractPostable -->
<g id="edge10" class="edge"><title>Postable&#45;&gt;AbstractPostable</title>
<path fill="none" stroke="black" d="M922.262,-960.559C907.748,-934.909 890.557,-904.527 876.754,-880.133"/>
<polygon fill="black" stroke="black" points="919.303,-962.438 927.274,-969.417 925.396,-958.99 919.303,-962.438"/>
<text text-anchor="middle" x="941" y="-924.8" font-family="Times,serif" font-size="14.00">implements</text>
</g>
<!-- Postable&#45;&gt;Menu -->
<g id="edge24" class="edge"><title>Postable&#45;&gt;Menu</title>
<path fill="none" stroke="black" d="M978.1,-960.241C987.848,-939.77 999.012,-916.324 1009.01,-895.325"/>
<polygon fill="black" stroke="black" points="974.869,-958.884 973.73,-969.417 981.189,-961.894 974.869,-958.884"/>
<text text-anchor="middle" x="1015.5" y="-924.8" font-family="Times,serif" font-size="14.00">extends</text>
</g>
<!-- ClassPrefix -->
<g id="node13" class="node"><title>ClassPrefix</title>
<polygon fill="none" stroke="black" points="950.5,-1593 950.5,-1684 1060.5,-1684 1060.5,-1593 950.5,-1593"/>
<text text-anchor="middle" x="1005.5" y="-1668.8" font-family="Times,serif" font-size="14.00">class ClassPrefix</text>
<polyline fill="none" stroke="black" points="950.5,-1661 1060.5,-1661 "/>
<text text-anchor="middle" x="1005.5" y="-1645.8" font-family="Times,serif" font-size="14.00">static getInstance</text>
<text text-anchor="middle" x="1005.5" y="-1630.8" font-family="Times,serif" font-size="14.00">getPrefix</text>
<text text-anchor="middle" x="1005.5" y="-1615.8" font-family="Times,serif" font-size="14.00">setPrefix</text>
<text text-anchor="middle" x="1005.5" y="-1600.8" font-family="Times,serif" font-size="14.00">static addPrefix</text>
</g>
<!-- Element -->
<g id="node16" class="node"><title>Element</title>
<polygon fill="none" stroke="green" points="290,-977 290,-1053 403,-1053 403,-977 290,-977"/>
<text text-anchor="middle" x="346.5" y="-1037.8" font-family="Times,serif" font-size="14.00">interface Element</text>
<polyline fill="none" stroke="green" points="290,-1030 403,-1030 "/>
<text text-anchor="middle" x="346.5" y="-1014.8" font-family="Times,serif" font-size="14.00">getHtml</text>
<text text-anchor="middle" x="346.5" y="-999.8" font-family="Times,serif" font-size="14.00">setHtml</text>
<text text-anchor="middle" x="346.5" y="-984.8" font-family="Times,serif" font-size="14.00">generateHtml</text>
</g>
<!-- Element&#45;&gt;Item -->
<g id="edge15" class="edge"><title>Element&#45;&gt;Item</title>
<path fill="none" stroke="black" d="M346.5,-966.423C346.5,-946.913 346.5,-923.977 346.5,-902.799"/>
<polygon fill="black" stroke="black" points="343,-966.581 346.5,-976.581 350,-966.581 343,-966.581"/>
<text text-anchor="middle" x="367.5" y="-924.8" font-family="Times,serif" font-size="14.00">extends</text>
</g>
<!-- VariableItem -->
<g id="node19" class="node"><title>VariableItem</title>
<polygon fill="none" stroke="green" points="17.5,-488.5 17.5,-564.5 157.5,-564.5 157.5,-488.5 17.5,-488.5"/>
<text text-anchor="middle" x="87.5" y="-549.3" font-family="Times,serif" font-size="14.00">interface VariableItem</text>
<polyline fill="none" stroke="green" points="17.5,-541.5 157.5,-541.5 "/>
<text text-anchor="middle" x="87.5" y="-526.3" font-family="Times,serif" font-size="14.00">register</text>
<text text-anchor="middle" x="87.5" y="-511.3" font-family="Times,serif" font-size="14.00">unregister</text>
<text text-anchor="middle" x="87.5" y="-496.3" font-family="Times,serif" font-size="14.00">update</text>
</g>
<!-- VariableItem&#45;&gt;Checkbox -->
<g id="edge17" class="edge"><title>VariableItem&#45;&gt;Checkbox</title>
<path fill="none" stroke="black" d="M74.7938,-478.571C64.288,-437.198 50.2028,-375.098 44.5,-320 43.8137,-313.369 44.3755,-311.666 44.5,-305 45.1772,-268.757 46.7139,-227.935 48.0625,-196.53"/>
<polygon fill="black" stroke="black" points="71.4325,-479.553 77.3128,-488.366 78.2119,-477.809 71.4325,-479.553"/>
<text text-anchor="middle" x="77" y="-308.8" font-family="Times,serif" font-size="14.00">implements</text>
</g>
<!-- VariableItem&#45;&gt;Radio -->
<g id="edge21" class="edge"><title>VariableItem&#45;&gt;Radio</title>
<path fill="none" stroke="black" d="M94.8498,-478.325C102.396,-433.31 115.438,-363.833 132.5,-305 141.55,-273.794 153.952,-240.065 165.211,-211.618"/>
<polygon fill="black" stroke="black" points="91.3652,-477.946 93.1871,-488.382 98.2714,-479.087 91.3652,-477.946"/>
<text text-anchor="middle" x="165" y="-308.8" font-family="Times,serif" font-size="14.00">implements</text>
</g>
<!-- MenuStore -->
<g id="node25" class="node"><title>MenuStore</title>
<polygon fill="none" stroke="black" points="1079,-1435.5 1079,-1841.5 1234,-1841.5 1234,-1435.5 1079,-1435.5"/>
<text text-anchor="middle" x="1156.5" y="-1826.3" font-family="Times,serif" font-size="14.00">class MenuStore</text>
<polyline fill="none" stroke="black" points="1079,-1818.5 1234,-1818.5 "/>
<text text-anchor="middle" x="1156.5" y="-1803.3" font-family="Times,serif" font-size="14.00">setActive</text>
<text text-anchor="middle" x="1156.5" y="-1788.3" font-family="Times,serif" font-size="14.00">getActive</text>
<text text-anchor="middle" x="1156.5" y="-1773.3" font-family="Times,serif" font-size="14.00">next</text>
<text text-anchor="middle" x="1156.5" y="-1758.3" font-family="Times,serif" font-size="14.00">previous</text>
<text text-anchor="middle" x="1156.5" y="-1743.3" font-family="Times,serif" font-size="14.00">clear</text>
<text text-anchor="middle" x="1156.5" y="-1728.3" font-family="Times,serif" font-size="14.00">abstract sort</text>
<text text-anchor="middle" x="1156.5" y="-1713.3" font-family="Times,serif" font-size="14.00">insert</text>
<text text-anchor="middle" x="1156.5" y="-1698.3" font-family="Times,serif" font-size="14.00">insert</text>
<text text-anchor="middle" x="1156.5" y="-1683.3" font-family="Times,serif" font-size="14.00">insert</text>
<text text-anchor="middle" x="1156.5" y="-1668.3" font-family="Times,serif" font-size="14.00">insert</text>
<text text-anchor="middle" x="1156.5" y="-1653.3" font-family="Times,serif" font-size="14.00">abstract insertElement</text>
<text text-anchor="middle" x="1156.5" y="-1638.3" font-family="Times,serif" font-size="14.00">remove</text>
<text text-anchor="middle" x="1156.5" y="-1623.3" font-family="Times,serif" font-size="14.00">remove</text>
<text text-anchor="middle" x="1156.5" y="-1608.3" font-family="Times,serif" font-size="14.00">remove</text>
<text text-anchor="middle" x="1156.5" y="-1593.3" font-family="Times,serif" font-size="14.00">remove</text>
<text text-anchor="middle" x="1156.5" y="-1578.3" font-family="Times,serif" font-size="14.00">abstract removeElement</text>
<text text-anchor="middle" x="1156.5" y="-1563.3" font-family="Times,serif" font-size="14.00">insertTaborder</text>
<text text-anchor="middle" x="1156.5" y="-1548.3" font-family="Times,serif" font-size="14.00">removeTaborder</text>
<text text-anchor="middle" x="1156.5" y="-1533.3" font-family="Times,serif" font-size="14.00">abstract addTabindex</text>
<text text-anchor="middle" x="1156.5" y="-1518.3" font-family="Times,serif" font-size="14.00">abstract removeTabindex</text>
<text text-anchor="middle" x="1156.5" y="-1503.3" font-family="Times,serif" font-size="14.00">abstract addEvents</text>
<text text-anchor="middle" x="1156.5" y="-1488.3" font-family="Times,serif" font-size="14.00">abstract addEvent</text>
<text text-anchor="middle" x="1156.5" y="-1473.3" font-family="Times,serif" font-size="14.00">abstract removeEvents</text>
<text text-anchor="middle" x="1156.5" y="-1458.3" font-family="Times,serif" font-size="14.00">abstract removeEvent</text>
<text text-anchor="middle" x="1156.5" y="-1443.3" font-family="Times,serif" font-size="14.00">abstract keydown</text>
</g>
<!-- KEY -->
<g id="node26" class="node"><title>KEY</title>
<polygon fill="none" stroke="magenta" points="1252,-1570.5 1252,-1706.5 1331,-1706.5 1331,-1570.5 1252,-1570.5"/>
<text text-anchor="middle" x="1291.5" y="-1691.3" font-family="Times,serif" font-size="14.00">enum KEY</text>
<polyline fill="none" stroke="magenta" points="1252,-1683.5 1331,-1683.5 "/>
<text text-anchor="middle" x="1291.5" y="-1668.3" font-family="Times,serif" font-size="14.00">RETURN</text>
<text text-anchor="middle" x="1291.5" y="-1653.3" font-family="Times,serif" font-size="14.00">ESCAPE</text>
<text text-anchor="middle" x="1291.5" y="-1638.3" font-family="Times,serif" font-size="14.00">SPACE</text>
<text text-anchor="middle" x="1291.5" y="-1623.3" font-family="Times,serif" font-size="14.00">LEFT</text>
<text text-anchor="middle" x="1291.5" y="-1608.3" font-family="Times,serif" font-size="14.00">UP</text>
<text text-anchor="middle" x="1291.5" y="-1593.3" font-family="Times,serif" font-size="14.00">RIGHT</text>
<text text-anchor="middle" x="1291.5" y="-1578.3" font-family="Times,serif" font-size="14.00">DOWN</text>
</g>
<!-- Variable -->
<g id="node29" class="node"><title>Variable</title>
<polygon fill="none" stroke="black" points="1349,-1563 1349,-1714 1468,-1714 1468,-1563 1349,-1563"/>
<text text-anchor="middle" x="1408.5" y="-1698.8" font-family="Times,serif" font-size="14.00">class Variable</text>
<polyline fill="none" stroke="black" points="1349,-1691 1468,-1691 "/>
<text text-anchor="middle" x="1408.5" y="-1675.8" font-family="Times,serif" font-size="14.00">getName</text>
<text text-anchor="middle" x="1408.5" y="-1660.8" font-family="Times,serif" font-size="14.00">getValue</text>
<text text-anchor="middle" x="1408.5" y="-1645.8" font-family="Times,serif" font-size="14.00">setValue</text>
<text text-anchor="middle" x="1408.5" y="-1630.8" font-family="Times,serif" font-size="14.00">register</text>
<text text-anchor="middle" x="1408.5" y="-1615.8" font-family="Times,serif" font-size="14.00">unregister</text>
<text text-anchor="middle" x="1408.5" y="-1600.8" font-family="Times,serif" font-size="14.00">update</text>
<text text-anchor="middle" x="1408.5" y="-1585.8" font-family="Times,serif" font-size="14.00">registerCallback</text>
<text text-anchor="middle" x="1408.5" y="-1570.8" font-family="Times,serif" font-size="14.00">unregisterCallback</text>
</g>
<!-- VariablePool -->
<g id="node30" class="node"><title>VariablePool</title>
<polygon fill="none" stroke="black" points="1486.5,-1600.5 1486.5,-1676.5 1604.5,-1676.5 1604.5,-1600.5 1486.5,-1600.5"/>
<text text-anchor="middle" x="1545.5" y="-1661.3" font-family="Times,serif" font-size="14.00">class VariablePool</text>
<polyline fill="none" stroke="black" points="1486.5,-1653.5 1604.5,-1653.5 "/>
<text text-anchor="middle" x="1545.5" y="-1638.3" font-family="Times,serif" font-size="14.00">insert</text>
<text text-anchor="middle" x="1545.5" y="-1623.3" font-family="Times,serif" font-size="14.00">lookup</text>
<text text-anchor="middle" x="1545.5" y="-1608.3" font-family="Times,serif" font-size="14.00">remove</text>
</g>
</g>
</svg>
