<?xml version="1.0" encoding="UTF-8" standalone="no"?>
<!DOCTYPE svg PUBLIC "-//W3C//DTD SVG 1.1//EN"
 "http://www.w3.org/Graphics/SVG/1.1/DTD/svg11.dtd">
<!-- Generated by graphviz version 2.38.0 (20140413.2041)
 -->
<!-- Title: structs Pages: 1 -->
<svg width="1861pt" height="545pt"
 viewBox="0.00 0.00 1861.00 545.00" xmlns="http://www.w3.org/2000/svg" xmlns:xlink="http://www.w3.org/1999/xlink">
<g id="graph0" class="graph" transform="scale(1 1) rotate(0) translate(4 541)">
<title>structs</title>
<polygon fill="white" stroke="none" points="-4,4 -4,-541 1857,-541 1857,4 -4,4"/>
<!-- AbstractEntry -->
<g id="node1" class="node"><title>AbstractEntry</title>
<polygon fill="none" stroke="blue" points="229,-196.5 229,-242.5 397,-242.5 397,-196.5 229,-196.5"/>
<text text-anchor="middle" x="313" y="-227.3" font-family="Times,serif" font-size="14.00">abstract class AbstractEntry</text>
<polyline fill="none" stroke="blue" points="229,-219.5 397,-219.5 "/>
<text text-anchor="middle" x="313" y="-204.3" font-family="Times,serif" font-size="14.00"> </text>
</g>
<!-- AbstractItem -->
<g id="node4" class="node"><title>AbstractItem</title>
<polygon fill="none" stroke="blue" points="271,-98.5 271,-144.5 435,-144.5 435,-98.5 271,-98.5"/>
<text text-anchor="middle" x="353" y="-129.3" font-family="Times,serif" font-size="14.00">abstract class AbstractItem</text>
<polyline fill="none" stroke="blue" points="271,-121.5 435,-121.5 "/>
<text text-anchor="middle" x="353" y="-106.3" font-family="Times,serif" font-size="14.00"> </text>
</g>
<!-- AbstractEntry&#45;&gt;AbstractItem -->
<g id="edge3" class="edge"><title>AbstractEntry&#45;&gt;AbstractItem</title>
<path fill="none" stroke="black" d="M325.985,-187.097C329.247,-179.226 332.746,-170.802 336,-163 338.466,-157.088 341.144,-150.695 343.629,-144.774"/>
<polygon fill="black" stroke="black" points="322.747,-185.767 322.154,-196.345 329.215,-188.445 322.747,-185.767"/>
<text text-anchor="middle" x="357" y="-166.8" font-family="Times,serif" font-size="14.00">extends</text>
</g>
<!-- Rule -->
<g id="node25" class="node"><title>Rule</title>
<polygon fill="none" stroke="black" points="181,-98.5 181,-144.5 253,-144.5 253,-98.5 181,-98.5"/>
<text text-anchor="middle" x="217" y="-129.3" font-family="Times,serif" font-size="14.00">class Rule</text>
<polyline fill="none" stroke="black" points="181,-121.5 253,-121.5 "/>
<text text-anchor="middle" x="217" y="-106.3" font-family="Times,serif" font-size="14.00"> </text>
</g>
<!-- AbstractEntry&#45;&gt;Rule -->
<g id="edge22" class="edge"><title>AbstractEntry&#45;&gt;Rule</title>
<path fill="none" stroke="black" d="M283.525,-189.025C269.223,-174.723 252.329,-157.829 239.145,-144.645"/>
<polygon fill="black" stroke="black" points="281.188,-191.638 290.734,-196.234 286.138,-186.688 281.188,-191.638"/>
<text text-anchor="middle" x="292" y="-166.8" font-family="Times,serif" font-size="14.00">extends</text>
</g>
<!-- MenuElement -->
<g id="node2" class="node"><title>MenuElement</title>
<polygon fill="none" stroke="blue" points="381,-294.5 381,-340.5 551,-340.5 551,-294.5 381,-294.5"/>
<text text-anchor="middle" x="466" y="-325.3" font-family="Times,serif" font-size="14.00">abstract class MenuElement</text>
<polyline fill="none" stroke="blue" points="381,-317.5 551,-317.5 "/>
<text text-anchor="middle" x="466" y="-302.3" font-family="Times,serif" font-size="14.00"> </text>
</g>
<!-- MenuElement&#45;&gt;AbstractEntry -->
<g id="edge1" class="edge"><title>MenuElement&#45;&gt;AbstractEntry</title>
<path fill="none" stroke="black" d="M458.892,-284.774C455.609,-276.094 450.854,-267.342 444,-261 439.588,-256.918 418.267,-249.753 394.065,-242.573"/>
<polygon fill="black" stroke="black" points="455.602,-285.974 462.009,-294.412 462.262,-283.82 455.602,-285.974"/>
<text text-anchor="middle" x="476" y="-264.8" font-family="Times,serif" font-size="14.00">extends</text>
</g>
<!-- AbstractPostable -->
<g id="node7" class="node"><title>AbstractPostable</title>
<polygon fill="none" stroke="blue" points="527,-196.5 527,-242.5 711,-242.5 711,-196.5 527,-196.5"/>
<text text-anchor="middle" x="619" y="-227.3" font-family="Times,serif" font-size="14.00">abstract class AbstractPostable</text>
<polyline fill="none" stroke="blue" points="527,-219.5 711,-219.5 "/>
<text text-anchor="middle" x="619" y="-204.3" font-family="Times,serif" font-size="14.00"> </text>
</g>
<!-- MenuElement&#45;&gt;AbstractPostable -->
<g id="edge9" class="edge"><title>MenuElement&#45;&gt;AbstractPostable</title>
<path fill="none" stroke="black" d="M509.822,-289.004C533.283,-274.283 561.795,-256.393 583.797,-242.588"/>
<polygon fill="black" stroke="black" points="507.712,-286.196 501.101,-294.476 511.432,-292.125 507.712,-286.196"/>
<text text-anchor="middle" x="573" y="-264.8" font-family="Times,serif" font-size="14.00">extends</text>
</g>
<!-- Entry -->
<g id="node3" class="node"><title>Entry</title>
<polygon fill="none" stroke="green" points="265,-294.5 265,-340.5 363,-340.5 363,-294.5 265,-294.5"/>
<text text-anchor="middle" x="314" y="-325.3" font-family="Times,serif" font-size="14.00">interface Entry</text>
<polyline fill="none" stroke="green" points="265,-317.5 363,-317.5 "/>
<text text-anchor="middle" x="314" y="-302.3" font-family="Times,serif" font-size="14.00"> </text>
</g>
<!-- Entry&#45;&gt;AbstractEntry -->
<g id="edge2" class="edge"><title>Entry&#45;&gt;AbstractEntry</title>
<path fill="none" stroke="black" d="M313.66,-283.837C313.518,-270.263 313.358,-254.862 313.231,-242.645"/>
<polygon fill="black" stroke="black" points="310.164,-284.271 313.768,-294.234 317.164,-284.198 310.164,-284.271"/>
<text text-anchor="middle" x="346.5" y="-264.8" font-family="Times,serif" font-size="14.00">implements</text>
</g>
<!-- Item -->
<g id="node5" class="node"><title>Item</title>
<polygon fill="none" stroke="green" points="414.5,-196.5 414.5,-242.5 507.5,-242.5 507.5,-196.5 414.5,-196.5"/>
<text text-anchor="middle" x="461" y="-227.3" font-family="Times,serif" font-size="14.00">interface Item</text>
<polyline fill="none" stroke="green" points="414.5,-219.5 507.5,-219.5 "/>
<text text-anchor="middle" x="461" y="-204.3" font-family="Times,serif" font-size="14.00"> </text>
</g>
<!-- Entry&#45;&gt;Item -->
<g id="edge14" class="edge"><title>Entry&#45;&gt;Item</title>
<path fill="none" stroke="black" d="M358.525,-289.068C365.408,-284.738 372.415,-280.278 379,-276 395.578,-265.231 413.809,-252.937 428.863,-242.662"/>
<polygon fill="black" stroke="black" points="356.532,-286.186 349.914,-294.46 360.247,-292.119 356.532,-286.186"/>
<text text-anchor="middle" x="423" y="-264.8" font-family="Times,serif" font-size="14.00">extends</text>
</g>
<!-- Checkbox -->
<g id="node20" class="node"><title>Checkbox</title>
<polygon fill="none" stroke="black" points="13.5,-0.5 13.5,-46.5 114.5,-46.5 114.5,-0.5 13.5,-0.5"/>
<text text-anchor="middle" x="64" y="-31.3" font-family="Times,serif" font-size="14.00">class Checkbox</text>
<polyline fill="none" stroke="black" points="13.5,-23.5 114.5,-23.5 "/>
<text text-anchor="middle" x="64" y="-8.3" font-family="Times,serif" font-size="14.00"> </text>
</g>
<!-- AbstractItem&#45;&gt;Checkbox -->
<g id="edge16" class="edge"><title>AbstractItem&#45;&gt;Checkbox</title>
<path fill="none" stroke="black" d="M262.789,-95.1231C249.906,-90.5901 236.973,-85.5276 225,-80 213.58,-74.7275 212.47,-70.1637 201,-65 173.408,-52.5784 141.001,-42.7981 114.634,-35.9627"/>
<polygon fill="black" stroke="black" points="262.021,-98.5592 272.615,-98.4852 264.287,-91.9362 262.021,-98.5592"/>
<text text-anchor="middle" x="246" y="-68.8" font-family="Times,serif" font-size="14.00">extends</text>
</g>
<!-- Command -->
<g id="node22" class="node"><title>Command</title>
<polygon fill="none" stroke="black" points="279,-0.5 279,-46.5 383,-46.5 383,-0.5 279,-0.5"/>
<text text-anchor="middle" x="331" y="-31.3" font-family="Times,serif" font-size="14.00">class Command</text>
<polyline fill="none" stroke="black" points="279,-23.5 383,-23.5 "/>
<text text-anchor="middle" x="331" y="-8.3" font-family="Times,serif" font-size="14.00"> </text>
</g>
<!-- AbstractItem&#45;&gt;Command -->
<g id="edge18" class="edge"><title>AbstractItem&#45;&gt;Command</title>
<path fill="none" stroke="black" d="M345.607,-88.2392C342.474,-74.5685 338.902,-58.9825 336.075,-46.6449"/>
<polygon fill="black" stroke="black" points="342.252,-89.2689 347.897,-98.2344 349.075,-87.7052 342.252,-89.2689"/>
<text text-anchor="middle" x="365" y="-68.8" font-family="Times,serif" font-size="14.00">extends</text>
</g>
<!-- Label -->
<g id="node23" class="node"><title>Label</title>
<polygon fill="none" stroke="black" points="401.5,-0.5 401.5,-46.5 478.5,-46.5 478.5,-0.5 401.5,-0.5"/>
<text text-anchor="middle" x="440" y="-31.3" font-family="Times,serif" font-size="14.00">class Label</text>
<polyline fill="none" stroke="black" points="401.5,-23.5 478.5,-23.5 "/>
<text text-anchor="middle" x="440" y="-8.3" font-family="Times,serif" font-size="14.00"> </text>
</g>
<!-- AbstractItem&#45;&gt;Label -->
<g id="edge19" class="edge"><title>AbstractItem&#45;&gt;Label</title>
<path fill="none" stroke="black" d="M380.127,-90.8549C383.456,-87.2024 386.808,-83.518 390,-80 399.934,-69.0501 410.936,-56.8466 420.084,-46.6774"/>
<polygon fill="black" stroke="black" points="377.539,-88.4978 373.384,-98.2438 382.71,-93.2164 377.539,-88.4978"/>
<text text-anchor="middle" x="424" y="-68.8" font-family="Times,serif" font-size="14.00">extends</text>
</g>
<!-- Radio -->
<g id="node24" class="node"><title>Radio</title>
<polygon fill="none" stroke="black" points="165.5,-0.5 165.5,-46.5 244.5,-46.5 244.5,-0.5 165.5,-0.5"/>
<text text-anchor="middle" x="205" y="-31.3" font-family="Times,serif" font-size="14.00">class Radio</text>
<polyline fill="none" stroke="black" points="165.5,-23.5 244.5,-23.5 "/>
<text text-anchor="middle" x="205" y="-8.3" font-family="Times,serif" font-size="14.00"> </text>
</g>
<!-- AbstractItem&#45;&gt;Radio -->
<g id="edge20" class="edge"><title>AbstractItem&#45;&gt;Radio</title>
<path fill="none" stroke="black" d="M310.61,-93.004C287.915,-78.283 260.336,-60.3935 239.052,-46.5879"/>
<polygon fill="black" stroke="black" points="308.751,-95.9701 319.046,-98.4757 312.561,-90.0973 308.751,-95.9701"/>
<text text-anchor="middle" x="309" y="-68.8" font-family="Times,serif" font-size="14.00">extends</text>
</g>
<!-- Submenu -->
<g id="node26" class="node"><title>Submenu</title>
<polygon fill="none" stroke="black" points="497,-0.5 497,-46.5 595,-46.5 595,-0.5 497,-0.5"/>
<text text-anchor="middle" x="546" y="-31.3" font-family="Times,serif" font-size="14.00">class Submenu</text>
<polyline fill="none" stroke="black" points="497,-23.5 595,-23.5 "/>
<text text-anchor="middle" x="546" y="-8.3" font-family="Times,serif" font-size="14.00"> </text>
</g>
<!-- AbstractItem&#45;&gt;Submenu -->
<g id="edge23" class="edge"><title>AbstractItem&#45;&gt;Submenu</title>
<path fill="none" stroke="black" d="M417.581,-94.5166C428.177,-89.8937 438.968,-84.9635 449,-80 469.52,-69.8472 491.732,-57.2623 509.717,-46.6445"/>
<polygon fill="black" stroke="black" points="416.144,-91.3245 408.343,-98.4931 418.912,-97.7542 416.144,-91.3245"/>
<text text-anchor="middle" x="498" y="-68.8" font-family="Times,serif" font-size="14.00">extends</text>
</g>
<!-- Item&#45;&gt;AbstractItem -->
<g id="edge4" class="edge"><title>Item&#45;&gt;AbstractItem</title>
<path fill="none" stroke="black" d="M421.828,-190.261C416.741,-186.265 411.678,-182.114 407,-178 395.188,-167.613 382.894,-155.128 373.025,-144.632"/>
<polygon fill="black" stroke="black" points="419.73,-193.063 429.79,-196.385 423.998,-187.514 419.73,-193.063"/>
<text text-anchor="middle" x="439.5" y="-166.8" font-family="Times,serif" font-size="14.00">implements</text>
</g>
<!-- AbstractMenu -->
<g id="node6" class="node"><title>AbstractMenu</title>
<polygon fill="none" stroke="blue" points="773,-98.5 773,-144.5 943,-144.5 943,-98.5 773,-98.5"/>
<text text-anchor="middle" x="858" y="-129.3" font-family="Times,serif" font-size="14.00">abstract class AbstractMenu</text>
<polyline fill="none" stroke="blue" points="773,-121.5 943,-121.5 "/>
<text text-anchor="middle" x="858" y="-106.3" font-family="Times,serif" font-size="14.00"> </text>
</g>
<!-- ContextMenu -->
<g id="node14" class="node"><title>ContextMenu</title>
<polygon fill="none" stroke="black" points="861,-0.5 861,-46.5 983,-46.5 983,-0.5 861,-0.5"/>
<text text-anchor="middle" x="922" y="-31.3" font-family="Times,serif" font-size="14.00">class ContextMenu</text>
<polyline fill="none" stroke="black" points="861,-23.5 983,-23.5 "/>
<text text-anchor="middle" x="922" y="-8.3" font-family="Times,serif" font-size="14.00"> </text>
</g>
<!-- AbstractMenu&#45;&gt;ContextMenu -->
<g id="edge12" class="edge"><title>AbstractMenu&#45;&gt;ContextMenu</title>
<path fill="none" stroke="black" d="M878.441,-89.8383C887.803,-75.7959 898.689,-59.4663 907.237,-46.6449"/>
<polygon fill="black" stroke="black" points="875.479,-87.9724 872.844,-98.2344 881.303,-91.8553 875.479,-87.9724"/>
<text text-anchor="middle" x="914" y="-68.8" font-family="Times,serif" font-size="14.00">extends</text>
</g>
<!-- SubMenu -->
<g id="node31" class="node"><title>SubMenu</title>
<polygon fill="none" stroke="black" points="743,-0.5 743,-46.5 843,-46.5 843,-0.5 743,-0.5"/>
<text text-anchor="middle" x="793" y="-31.3" font-family="Times,serif" font-size="14.00">class SubMenu</text>
<polyline fill="none" stroke="black" points="743,-23.5 843,-23.5 "/>
<text text-anchor="middle" x="793" y="-8.3" font-family="Times,serif" font-size="14.00"> </text>
</g>
<!-- AbstractMenu&#45;&gt;SubMenu -->
<g id="edge28" class="edge"><title>AbstractMenu&#45;&gt;SubMenu</title>
<path fill="none" stroke="black" d="M837.24,-89.8383C827.732,-75.7959 816.675,-59.4663 807.994,-46.6449"/>
<polygon fill="black" stroke="black" points="834.42,-91.9162 842.924,-98.2344 840.216,-87.9916 834.42,-91.9162"/>
<text text-anchor="middle" x="850" y="-68.8" font-family="Times,serif" font-size="14.00">extends</text>
</g>
<!-- AbstractPostable&#45;&gt;AbstractMenu -->
<g id="edge5" class="edge"><title>AbstractPostable&#45;&gt;AbstractMenu</title>
<path fill="none" stroke="black" d="M684.801,-192.772C697.171,-187.894 709.99,-182.812 722,-178 749.223,-167.094 779.433,-154.786 804.452,-144.537"/>
<polygon fill="black" stroke="black" points="683.472,-189.534 675.45,-196.454 686.037,-196.047 683.472,-189.534"/>
<text text-anchor="middle" x="776" y="-166.8" font-family="Times,serif" font-size="14.00">extends</text>
</g>
<!-- CloseButton -->
<g id="node13" class="node"><title>CloseButton</title>
<polygon fill="none" stroke="black" points="553,-98.5 553,-144.5 667,-144.5 667,-98.5 553,-98.5"/>
<text text-anchor="middle" x="610" y="-129.3" font-family="Times,serif" font-size="14.00">class CloseButton</text>
<polyline fill="none" stroke="black" points="553,-121.5 667,-121.5 "/>
<text text-anchor="middle" x="610" y="-106.3" font-family="Times,serif" font-size="14.00"> </text>
</g>
<!-- AbstractPostable&#45;&gt;CloseButton -->
<g id="edge11" class="edge"><title>AbstractPostable&#45;&gt;CloseButton</title>
<path fill="none" stroke="black" d="M615.976,-186.239C614.694,-172.568 613.233,-156.983 612.076,-144.645"/>
<polygon fill="black" stroke="black" points="612.494,-186.605 616.913,-196.234 619.464,-185.951 612.494,-186.605"/>
<text text-anchor="middle" x="637" y="-166.8" font-family="Times,serif" font-size="14.00">extends</text>
</g>
<!-- Info -->
<g id="node19" class="node"><title>Info</title>
<polygon fill="none" stroke="black" points="685.5,-98.5 685.5,-144.5 754.5,-144.5 754.5,-98.5 685.5,-98.5"/>
<text text-anchor="middle" x="720" y="-129.3" font-family="Times,serif" font-size="14.00">class Info</text>
<polyline fill="none" stroke="black" points="685.5,-121.5 754.5,-121.5 "/>
<text text-anchor="middle" x="720" y="-106.3" font-family="Times,serif" font-size="14.00"> </text>
</g>
<!-- AbstractPostable&#45;&gt;Info -->
<g id="edge13" class="edge"><title>AbstractPostable&#45;&gt;Info</title>
<path fill="none" stroke="black" d="M650.22,-189.15C654.189,-185.402 658.193,-181.614 662,-178 673.523,-167.061 686.284,-154.859 696.897,-144.688"/>
<polygon fill="black" stroke="black" points="647.563,-186.845 642.689,-196.252 652.365,-191.938 647.563,-186.845"/>
<text text-anchor="middle" x="697" y="-166.8" font-family="Times,serif" font-size="14.00">extends</text>
</g>
<!-- Popup -->
<g id="node30" class="node"><title>Popup</title>
<polygon fill="none" stroke="black" points="453.5,-98.5 453.5,-144.5 534.5,-144.5 534.5,-98.5 453.5,-98.5"/>
<text text-anchor="middle" x="494" y="-129.3" font-family="Times,serif" font-size="14.00">class Popup</text>
<polyline fill="none" stroke="black" points="453.5,-121.5 534.5,-121.5 "/>
<text text-anchor="middle" x="494" y="-106.3" font-family="Times,serif" font-size="14.00"> </text>
</g>
<!-- AbstractPostable&#45;&gt;Popup -->
<g id="edge27" class="edge"><title>AbstractPostable&#45;&gt;Popup</title>
<path fill="none" stroke="black" d="M582.211,-190.246C563.312,-175.732 540.615,-158.3 522.977,-144.754"/>
<polygon fill="black" stroke="black" points="580.26,-193.16 590.322,-196.476 584.523,-187.609 580.26,-193.16"/>
<text text-anchor="middle" x="585" y="-166.8" font-family="Times,serif" font-size="14.00">extends</text>
</g>
<!-- Menu -->
<g id="node8" class="node"><title>Menu</title>
<polygon fill="none" stroke="green" points="767,-196.5 767,-242.5 867,-242.5 867,-196.5 767,-196.5"/>
<text text-anchor="middle" x="817" y="-227.3" font-family="Times,serif" font-size="14.00">interface Menu</text>
<polyline fill="none" stroke="green" points="767,-219.5 867,-219.5 "/>
<text text-anchor="middle" x="817" y="-204.3" font-family="Times,serif" font-size="14.00"> </text>
</g>
<!-- Menu&#45;&gt;AbstractMenu -->
<g id="edge6" class="edge"><title>Menu&#45;&gt;AbstractMenu</title>
<path fill="none" stroke="black" d="M830.607,-186.641C836.486,-172.874 843.221,-157.103 848.542,-144.645"/>
<polygon fill="black" stroke="black" points="827.218,-185.663 826.509,-196.234 833.656,-188.413 827.218,-185.663"/>
<text text-anchor="middle" x="871.5" y="-166.8" font-family="Times,serif" font-size="14.00">implements</text>
</g>
<!-- AbstractNavigatable -->
<g id="node9" class="node"><title>AbstractNavigatable</title>
<polygon fill="none" stroke="blue" points="310.5,-392.5 310.5,-438.5 513.5,-438.5 513.5,-392.5 310.5,-392.5"/>
<text text-anchor="middle" x="412" y="-423.3" font-family="Times,serif" font-size="14.00">abstract class AbstractNavigatable</text>
<polyline fill="none" stroke="blue" points="310.5,-415.5 513.5,-415.5 "/>
<text text-anchor="middle" x="412" y="-400.3" font-family="Times,serif" font-size="14.00"> </text>
</g>
<!-- AbstractNavigatable&#45;&gt;MenuElement -->
<g id="edge25" class="edge"><title>AbstractNavigatable&#45;&gt;MenuElement</title>
<path fill="none" stroke="black" d="M419.183,-382.458C421.666,-374.503 424.89,-366.199 429,-359 432.683,-352.549 437.557,-346.269 442.553,-340.655"/>
<polygon fill="black" stroke="black" points="415.77,-381.663 416.423,-392.238 422.507,-383.564 415.77,-381.663"/>
<text text-anchor="middle" x="450" y="-362.8" font-family="Times,serif" font-size="14.00">extends</text>
</g>
<!-- KeyNavigatable -->
<g id="node10" class="node"><title>KeyNavigatable</title>
<polygon fill="none" stroke="green" points="244.5,-490.5 244.5,-536.5 399.5,-536.5 399.5,-490.5 244.5,-490.5"/>
<text text-anchor="middle" x="322" y="-521.3" font-family="Times,serif" font-size="14.00">interface KeyNavigatable</text>
<polyline fill="none" stroke="green" points="244.5,-513.5 399.5,-513.5 "/>
<text text-anchor="middle" x="322" y="-498.3" font-family="Times,serif" font-size="14.00"> </text>
</g>
<!-- KeyNavigatable&#45;&gt;AbstractNavigatable -->
<g id="edge7" class="edge"><title>KeyNavigatable&#45;&gt;AbstractNavigatable</title>
<path fill="none" stroke="black" d="M350.002,-482.631C363.331,-468.413 378.992,-451.708 391.239,-438.645"/>
<polygon fill="black" stroke="black" points="347.16,-480.545 342.874,-490.234 352.267,-485.333 347.16,-480.545"/>
<text text-anchor="middle" x="405.5" y="-460.8" font-family="Times,serif" font-size="14.00">implements</text>
</g>
<!-- MouseNavigatable -->
<g id="node11" class="node"><title>MouseNavigatable</title>
<polygon fill="none" stroke="green" points="418,-490.5 418,-536.5 588,-536.5 588,-490.5 418,-490.5"/>
<text text-anchor="middle" x="503" y="-521.3" font-family="Times,serif" font-size="14.00">interface MouseNavigatable</text>
<polyline fill="none" stroke="green" points="418,-513.5 588,-513.5 "/>
<text text-anchor="middle" x="503" y="-498.3" font-family="Times,serif" font-size="14.00"> </text>
</g>
<!-- MouseNavigatable&#45;&gt;AbstractNavigatable -->
<g id="edge8" class="edge"><title>MouseNavigatable&#45;&gt;AbstractNavigatable</title>
<path fill="none" stroke="black" d="M474.686,-482.631C461.21,-468.413 445.374,-451.708 432.991,-438.645"/>
<polygon fill="black" stroke="black" points="472.474,-485.385 481.894,-490.234 477.555,-480.569 472.474,-485.385"/>
<text text-anchor="middle" x="495.5" y="-460.8" font-family="Times,serif" font-size="14.00">implements</text>
</g>
<!-- Postable -->
<g id="node12" class="node"><title>Postable</title>
<polygon fill="none" stroke="green" points="687.5,-294.5 687.5,-340.5 800.5,-340.5 800.5,-294.5 687.5,-294.5"/>
<text text-anchor="middle" x="744" y="-325.3" font-family="Times,serif" font-size="14.00">interface Postable</text>
<polyline fill="none" stroke="green" points="687.5,-317.5 800.5,-317.5 "/>
<text text-anchor="middle" x="744" y="-302.3" font-family="Times,serif" font-size="14.00"> </text>
</g>
<!-- Postable&#45;&gt;AbstractPostable -->
<g id="edge10" class="edge"><title>Postable&#45;&gt;AbstractPostable</title>
<path fill="none" stroke="black" d="M707.211,-288.246C688.312,-273.732 665.615,-256.3 647.977,-242.754"/>
<polygon fill="black" stroke="black" points="705.26,-291.16 715.322,-294.476 709.523,-285.609 705.26,-291.16"/>
<text text-anchor="middle" x="720.5" y="-264.8" font-family="Times,serif" font-size="14.00">implements</text>
</g>
<!-- Postable&#45;&gt;Menu -->
<g id="edge24" class="edge"><title>Postable&#45;&gt;Menu</title>
<path fill="none" stroke="black" d="M767.014,-286.235C777.759,-272.104 790.319,-255.587 800.161,-242.645"/>
<polygon fill="black" stroke="black" points="764.198,-284.156 760.931,-294.234 769.77,-288.393 764.198,-284.156"/>
<text text-anchor="middle" x="805" y="-264.8" font-family="Times,serif" font-size="14.00">extends</text>
</g>
<!-- Element -->
<g id="node15" class="node"><title>Element</title>
<polygon fill="none" stroke="green" points="531.5,-392.5 531.5,-438.5 644.5,-438.5 644.5,-392.5 531.5,-392.5"/>
<text text-anchor="middle" x="588" y="-423.3" font-family="Times,serif" font-size="14.00">interface Element</text>
<polyline fill="none" stroke="green" points="531.5,-415.5 644.5,-415.5 "/>
<text text-anchor="middle" x="588" y="-400.3" font-family="Times,serif" font-size="14.00"> </text>
</g>
<!-- Element&#45;&gt;MenuElement -->
<g id="edge26" class="edge"><title>Element&#45;&gt;MenuElement</title>
<path fill="none" stroke="black" d="M527.617,-387.125C521.062,-383.124 514.708,-378.737 509,-374 497.65,-364.582 487.423,-351.668 479.793,-340.667"/>
<polygon fill="black" stroke="black" points="526.229,-390.366 536.638,-392.339 529.732,-384.305 526.229,-390.366"/>
<text text-anchor="middle" x="541.5" y="-362.8" font-family="Times,serif" font-size="14.00">implements</text>
</g>
<!-- Element&#45;&gt;Item -->
<g id="edge15" class="edge"><title>Element&#45;&gt;Item</title>
<path fill="none" stroke="black" d="M594.567,-382.126C599.482,-348.176 601.324,-295.111 574,-261 557.656,-240.596 542.616,-251.804 518,-243 514.594,-241.782 511.087,-240.49 507.567,-239.167"/>
<polygon fill="black" stroke="black" points="591.042,-381.997 592.896,-392.429 597.952,-383.118 591.042,-381.997"/>
<text text-anchor="middle" x="619" y="-313.8" font-family="Times,serif" font-size="14.00">extends</text>
</g>
<!-- HtmlClasses -->
<g id="node16" class="node"><title>HtmlClasses</title>
<polygon fill="none" stroke="magenta" points="606,-490.5 606,-536.5 726,-536.5 726,-490.5 606,-490.5"/>
<text text-anchor="middle" x="666" y="-521.3" font-family="Times,serif" font-size="14.00">enum HtmlClasses</text>
<polyline fill="none" stroke="magenta" points="606,-513.5 726,-513.5 "/>
<text text-anchor="middle" x="666" y="-498.3" font-family="Times,serif" font-size="14.00"> </text>
</g>
<!-- HtmlIds -->
<g id="node17" class="node"><title>HtmlIds</title>
<polygon fill="none" stroke="magenta" points="744,-490.5 744,-536.5 840,-536.5 840,-490.5 744,-490.5"/>
<text text-anchor="middle" x="792" y="-521.3" font-family="Times,serif" font-size="14.00">enum HtmlIds</text>
<polyline fill="none" stroke="magenta" points="744,-513.5 840,-513.5 "/>
<text text-anchor="middle" x="792" y="-498.3" font-family="Times,serif" font-size="14.00"> </text>
</g>
<!-- HtmlAttrs -->
<g id="node18" class="node"><title>HtmlAttrs</title>
<polygon fill="none" stroke="magenta" points="858.5,-490.5 858.5,-536.5 965.5,-536.5 965.5,-490.5 858.5,-490.5"/>
<text text-anchor="middle" x="912" y="-521.3" font-family="Times,serif" font-size="14.00">enum HtmlAttrs</text>
<polyline fill="none" stroke="magenta" points="858.5,-513.5 965.5,-513.5 "/>
<text text-anchor="middle" x="912" y="-498.3" font-family="Times,serif" font-size="14.00"> </text>
</g>
<!-- VariableItem -->
<g id="node21" class="node"><title>VariableItem</title>
<polygon fill="none" stroke="green" points="0,-98.5 0,-144.5 140,-144.5 140,-98.5 0,-98.5"/>
<text text-anchor="middle" x="70" y="-129.3" font-family="Times,serif" font-size="14.00">interface VariableItem</text>
<polyline fill="none" stroke="green" points="0,-121.5 140,-121.5 "/>
<text text-anchor="middle" x="70" y="-106.3" font-family="Times,serif" font-size="14.00"> </text>
</g>
<!-- VariableItem&#45;&gt;Checkbox -->
<g id="edge17" class="edge"><title>VariableItem&#45;&gt;Checkbox</title>
<path fill="none" stroke="black" d="M51.0092,-88.9957C49.8,-86.0285 48.7635,-83.0052 48,-80 45.185,-68.9203 48.0499,-56.7026 52.0944,-46.5576"/>
<polygon fill="black" stroke="black" points="47.9119,-90.6337 55.3377,-98.1907 54.2452,-87.6523 47.9119,-90.6337"/>
<text text-anchor="middle" x="80.5" y="-68.8" font-family="Times,serif" font-size="14.00">implements</text>
</g>
<!-- VariableItem&#45;&gt;Radio -->
<g id="edge21" class="edge"><title>VariableItem&#45;&gt;Radio</title>
<path fill="none" stroke="black" d="M102.02,-91.7164C112.546,-82.7652 124.502,-73.122 136,-65 145.19,-58.5087 155.472,-52.0707 165.235,-46.302"/>
<polygon fill="black" stroke="black" points="99.5681,-89.2089 94.2804,-98.3899 104.139,-94.5102 99.5681,-89.2089"/>
<text text-anchor="middle" x="168.5" y="-68.8" font-family="Times,serif" font-size="14.00">implements</text>
</g>
<!-- KEY -->
<g id="node27" class="node"><title>KEY</title>
<polygon fill="none" stroke="magenta" points="983.5,-490.5 983.5,-536.5 1062.5,-536.5 1062.5,-490.5 983.5,-490.5"/>
<text text-anchor="middle" x="1023" y="-521.3" font-family="Times,serif" font-size="14.00">enum KEY</text>
<polyline fill="none" stroke="magenta" points="983.5,-513.5 1062.5,-513.5 "/>
<text text-anchor="middle" x="1023" y="-498.3" font-family="Times,serif" font-size="14.00"> </text>
</g>
<!-- MenuStore -->
<g id="node28" class="node"><title>MenuStore</title>
<polygon fill="none" stroke="black" points="1080.5,-490.5 1080.5,-536.5 1187.5,-536.5 1187.5,-490.5 1080.5,-490.5"/>
<text text-anchor="middle" x="1134" y="-521.3" font-family="Times,serif" font-size="14.00">class MenuStore</text>
<polyline fill="none" stroke="black" points="1080.5,-513.5 1187.5,-513.5 "/>
<text text-anchor="middle" x="1134" y="-498.3" font-family="Times,serif" font-size="14.00"> </text>
</g>
<!-- MOUSE -->
<g id="node29" class="node"><title>MOUSE</title>
<polygon fill="none" stroke="magenta" points="1205.5,-490.5 1205.5,-536.5 1304.5,-536.5 1304.5,-490.5 1205.5,-490.5"/>
<text text-anchor="middle" x="1255" y="-521.3" font-family="Times,serif" font-size="14.00">enum MOUSE</text>
<polyline fill="none" stroke="magenta" points="1205.5,-513.5 1304.5,-513.5 "/>
<text text-anchor="middle" x="1255" y="-498.3" font-family="Times,serif" font-size="14.00"> </text>
</g>
<!-- TOUCH -->
<g id="node32" class="node"><title>TOUCH</title>
<polygon fill="none" stroke="magenta" points="1323,-490.5 1323,-536.5 1421,-536.5 1421,-490.5 1323,-490.5"/>
<text text-anchor="middle" x="1372" y="-521.3" font-family="Times,serif" font-size="14.00">enum TOUCH</text>
<polyline fill="none" stroke="magenta" points="1323,-513.5 1421,-513.5 "/>
<text text-anchor="middle" x="1372" y="-498.3" font-family="Times,serif" font-size="14.00"> </text>
</g>
<!-- TouchNavigatable -->
<g id="node33" class="node"><title>TouchNavigatable</title>
<polygon fill="none" stroke="green" points="1438.5,-490.5 1438.5,-536.5 1605.5,-536.5 1605.5,-490.5 1438.5,-490.5"/>
<text text-anchor="middle" x="1522" y="-521.3" font-family="Times,serif" font-size="14.00">interface TouchNavigatable</text>
<polyline fill="none" stroke="green" points="1438.5,-513.5 1605.5,-513.5 "/>
<text text-anchor="middle" x="1522" y="-498.3" font-family="Times,serif" font-size="14.00"> </text>
</g>
<!-- Variable -->
<g id="node34" class="node"><title>Variable</title>
<polygon fill="none" stroke="black" points="1623.5,-490.5 1623.5,-536.5 1716.5,-536.5 1716.5,-490.5 1623.5,-490.5"/>
<text text-anchor="middle" x="1670" y="-521.3" font-family="Times,serif" font-size="14.00">class Variable</text>
<polyline fill="none" stroke="black" points="1623.5,-513.5 1716.5,-513.5 "/>
<text text-anchor="middle" x="1670" y="-498.3" font-family="Times,serif" font-size="14.00"> </text>
</g>
<!-- VariablePool -->
<g id="node35" class="node"><title>VariablePool</title>
<polygon fill="none" stroke="black" points="1735,-490.5 1735,-536.5 1853,-536.5 1853,-490.5 1735,-490.5"/>
<text text-anchor="middle" x="1794" y="-521.3" font-family="Times,serif" font-size="14.00">class VariablePool</text>
<polyline fill="none" stroke="black" points="1735,-513.5 1853,-513.5 "/>
<text text-anchor="middle" x="1794" y="-498.3" font-family="Times,serif" font-size="14.00"> </text>
</g>
</g>
</svg>
