<?xml version="1.0" encoding="UTF-8" standalone="no"?>
<!DOCTYPE svg PUBLIC "-//W3C//DTD SVG 1.1//EN"
 "http://www.w3.org/Graphics/SVG/1.1/DTD/svg11.dtd">
<!-- Generated by graphviz version 2.38.0 (20140413.2041)
 -->
<!-- Title: structs Pages: 1 -->
<svg width="1469pt" height="545pt"
 viewBox="0.00 0.00 1468.50 545.00" xmlns="http://www.w3.org/2000/svg" xmlns:xlink="http://www.w3.org/1999/xlink">
<g id="graph0" class="graph" transform="scale(1 1) rotate(0) translate(4 541)">
<title>structs</title>
<polygon fill="white" stroke="none" points="-4,4 -4,-541 1464.5,-541 1464.5,4 -4,4"/>
<!-- AbstractEntry -->
<g id="node1" class="node"><title>AbstractEntry</title>
<polygon fill="none" stroke="blue" points="401.5,-196.5 401.5,-242.5 569.5,-242.5 569.5,-196.5 401.5,-196.5"/>
<text text-anchor="middle" x="485.5" y="-227.3" font-family="Times,serif" font-size="14.00">abstract class AbstractEntry</text>
<polyline fill="none" stroke="blue" points="401.5,-219.5 569.5,-219.5 "/>
<text text-anchor="middle" x="485.5" y="-204.3" font-family="Times,serif" font-size="14.00"> </text>
</g>
<!-- AbstractItem -->
<g id="node4" class="node"><title>AbstractItem</title>
<polygon fill="none" stroke="blue" points="261.5,-98.5 261.5,-144.5 425.5,-144.5 425.5,-98.5 261.5,-98.5"/>
<text text-anchor="middle" x="343.5" y="-129.3" font-family="Times,serif" font-size="14.00">abstract class AbstractItem</text>
<polyline fill="none" stroke="blue" points="261.5,-121.5 425.5,-121.5 "/>
<text text-anchor="middle" x="343.5" y="-106.3" font-family="Times,serif" font-size="14.00"> </text>
</g>
<!-- AbstractEntry&#45;&gt;AbstractItem -->
<g id="edge3" class="edge"><title>AbstractEntry&#45;&gt;AbstractItem</title>
<path fill="none" stroke="black" d="M444.572,-190.83C422.933,-176.201 396.724,-158.483 376.418,-144.754"/>
<polygon fill="black" stroke="black" points="442.678,-193.774 452.922,-196.476 446.598,-187.975 442.678,-193.774"/>
<text text-anchor="middle" x="444.5" y="-166.8" font-family="Times,serif" font-size="14.00">extends</text>
</g>
<!-- Rule -->
<g id="node23" class="node"><title>Rule</title>
<polygon fill="none" stroke="black" points="451.5,-98.5 451.5,-144.5 523.5,-144.5 523.5,-98.5 451.5,-98.5"/>
<text text-anchor="middle" x="487.5" y="-129.3" font-family="Times,serif" font-size="14.00">class Rule</text>
<polyline fill="none" stroke="black" points="451.5,-121.5 523.5,-121.5 "/>
<text text-anchor="middle" x="487.5" y="-106.3" font-family="Times,serif" font-size="14.00"> </text>
</g>
<!-- AbstractEntry&#45;&gt;Rule -->
<g id="edge22" class="edge"><title>AbstractEntry&#45;&gt;Rule</title>
<path fill="none" stroke="black" d="M486.18,-185.837C486.463,-172.263 486.784,-156.862 487.039,-144.645"/>
<polygon fill="black" stroke="black" points="482.673,-186.164 485.964,-196.234 489.671,-186.309 482.673,-186.164"/>
<text text-anchor="middle" x="508.5" y="-166.8" font-family="Times,serif" font-size="14.00">extends</text>
</g>
<!-- MenuElement -->
<g id="node2" class="node"><title>MenuElement</title>
<polygon fill="none" stroke="blue" points="608.5,-294.5 608.5,-340.5 778.5,-340.5 778.5,-294.5 608.5,-294.5"/>
<text text-anchor="middle" x="693.5" y="-325.3" font-family="Times,serif" font-size="14.00">abstract class MenuElement</text>
<polyline fill="none" stroke="blue" points="608.5,-317.5 778.5,-317.5 "/>
<text text-anchor="middle" x="693.5" y="-302.3" font-family="Times,serif" font-size="14.00"> </text>
</g>
<!-- MenuElement&#45;&gt;AbstractEntry -->
<g id="edge1" class="edge"><title>MenuElement&#45;&gt;AbstractEntry</title>
<path fill="none" stroke="black" d="M636.44,-290.164C604.085,-275.232 564.06,-256.758 533.357,-242.588"/>
<polygon fill="black" stroke="black" points="635.234,-293.463 645.781,-294.476 638.168,-287.107 635.234,-293.463"/>
<text text-anchor="middle" x="623.5" y="-264.8" font-family="Times,serif" font-size="14.00">extends</text>
</g>
<!-- AbstractPostable -->
<g id="node7" class="node"><title>AbstractPostable</title>
<polygon fill="none" stroke="blue" points="676.5,-196.5 676.5,-242.5 860.5,-242.5 860.5,-196.5 676.5,-196.5"/>
<text text-anchor="middle" x="768.5" y="-227.3" font-family="Times,serif" font-size="14.00">abstract class AbstractPostable</text>
<polyline fill="none" stroke="blue" points="676.5,-219.5 860.5,-219.5 "/>
<text text-anchor="middle" x="768.5" y="-204.3" font-family="Times,serif" font-size="14.00"> </text>
</g>
<!-- MenuElement&#45;&gt;AbstractPostable -->
<g id="edge9" class="edge"><title>MenuElement&#45;&gt;AbstractPostable</title>
<path fill="none" stroke="black" d="M707.952,-285.298C712.41,-277.041 717.692,-268.379 723.5,-261 728.57,-254.558 734.728,-248.281 740.841,-242.668"/>
<polygon fill="black" stroke="black" points="704.753,-283.866 703.286,-294.359 710.976,-287.071 704.753,-283.866"/>
<text text-anchor="middle" x="744.5" y="-264.8" font-family="Times,serif" font-size="14.00">extends</text>
</g>
<!-- Entry -->
<g id="node3" class="node"><title>Entry</title>
<polygon fill="none" stroke="green" points="420.5,-294.5 420.5,-340.5 518.5,-340.5 518.5,-294.5 420.5,-294.5"/>
<text text-anchor="middle" x="469.5" y="-325.3" font-family="Times,serif" font-size="14.00">interface Entry</text>
<polyline fill="none" stroke="green" points="420.5,-317.5 518.5,-317.5 "/>
<text text-anchor="middle" x="469.5" y="-302.3" font-family="Times,serif" font-size="14.00"> </text>
</g>
<!-- Entry&#45;&gt;AbstractEntry -->
<g id="edge2" class="edge"><title>Entry&#45;&gt;AbstractEntry</title>
<path fill="none" stroke="black" d="M474.877,-284.239C477.155,-270.568 479.753,-254.983 481.809,-242.645"/>
<polygon fill="black" stroke="black" points="471.403,-283.795 473.211,-294.234 478.307,-284.946 471.403,-283.795"/>
<text text-anchor="middle" x="511" y="-264.8" font-family="Times,serif" font-size="14.00">implements</text>
</g>
<!-- Item -->
<g id="node5" class="node"><title>Item</title>
<polygon fill="none" stroke="green" points="289,-196.5 289,-242.5 382,-242.5 382,-196.5 289,-196.5"/>
<text text-anchor="middle" x="335.5" y="-227.3" font-family="Times,serif" font-size="14.00">interface Item</text>
<polyline fill="none" stroke="green" points="289,-219.5 382,-219.5 "/>
<text text-anchor="middle" x="335.5" y="-204.3" font-family="Times,serif" font-size="14.00"> </text>
</g>
<!-- Entry&#45;&gt;Item -->
<g id="edge14" class="edge"><title>Entry&#45;&gt;Item</title>
<path fill="none" stroke="black" d="M430.606,-288.636C410.239,-274.045 385.641,-256.422 366.563,-242.754"/>
<polygon fill="black" stroke="black" points="428.59,-291.497 438.758,-294.476 432.667,-285.807 428.59,-291.497"/>
<text text-anchor="middle" x="432.5" y="-264.8" font-family="Times,serif" font-size="14.00">extends</text>
</g>
<!-- Checkbox -->
<g id="node18" class="node"><title>Checkbox</title>
<polygon fill="none" stroke="black" points="0,-0.5 0,-46.5 101,-46.5 101,-0.5 0,-0.5"/>
<text text-anchor="middle" x="50.5" y="-31.3" font-family="Times,serif" font-size="14.00">class Checkbox</text>
<polyline fill="none" stroke="black" points="0,-23.5 101,-23.5 "/>
<text text-anchor="middle" x="50.5" y="-8.3" font-family="Times,serif" font-size="14.00"> </text>
</g>
<!-- AbstractItem&#45;&gt;Checkbox -->
<g id="edge16" class="edge"><title>AbstractItem&#45;&gt;Checkbox</title>
<path fill="none" stroke="black" d="M262.764,-95.0755C249.213,-90.3531 235.377,-85.2453 222.5,-80 208.325,-74.2258 205.797,-70.4661 191.5,-65 162.12,-53.7671 128.272,-43.9466 101.105,-36.79"/>
<polygon fill="black" stroke="black" points="261.968,-98.503 272.563,-98.4425 264.243,-91.8828 261.968,-98.503"/>
<text text-anchor="middle" x="243.5" y="-68.8" font-family="Times,serif" font-size="14.00">extends</text>
</g>
<!-- Command -->
<g id="node20" class="node"><title>Command</title>
<polygon fill="none" stroke="black" points="503.5,-0.5 503.5,-46.5 607.5,-46.5 607.5,-0.5 503.5,-0.5"/>
<text text-anchor="middle" x="555.5" y="-31.3" font-family="Times,serif" font-size="14.00">class Command</text>
<polyline fill="none" stroke="black" points="503.5,-23.5 607.5,-23.5 "/>
<text text-anchor="middle" x="555.5" y="-8.3" font-family="Times,serif" font-size="14.00"> </text>
</g>
<!-- AbstractItem&#45;&gt;Command -->
<g id="edge18" class="edge"><title>AbstractItem&#45;&gt;Command</title>
<path fill="none" stroke="black" d="M410.498,-94.535C421.912,-89.8554 433.596,-84.9021 444.5,-80 467.59,-69.6193 492.868,-57.0758 513.461,-46.5417"/>
<polygon fill="black" stroke="black" points="408.946,-91.388 400.998,-98.3944 411.58,-97.8733 408.946,-91.388"/>
<text text-anchor="middle" x="496.5" y="-68.8" font-family="Times,serif" font-size="14.00">extends</text>
</g>
<!-- Label -->
<g id="node21" class="node"><title>Label</title>
<polygon fill="none" stroke="black" points="292,-0.5 292,-46.5 369,-46.5 369,-0.5 292,-0.5"/>
<text text-anchor="middle" x="330.5" y="-31.3" font-family="Times,serif" font-size="14.00">class Label</text>
<polyline fill="none" stroke="black" points="292,-23.5 369,-23.5 "/>
<text text-anchor="middle" x="330.5" y="-8.3" font-family="Times,serif" font-size="14.00"> </text>
</g>
<!-- AbstractItem&#45;&gt;Label -->
<g id="edge19" class="edge"><title>AbstractItem&#45;&gt;Label</title>
<path fill="none" stroke="black" d="M339.131,-88.2392C337.28,-74.5685 335.17,-58.9825 333.499,-46.6449"/>
<polygon fill="black" stroke="black" points="335.675,-88.7945 340.485,-98.2344 342.611,-87.8551 335.675,-88.7945"/>
<text text-anchor="middle" x="359.5" y="-68.8" font-family="Times,serif" font-size="14.00">extends</text>
</g>
<!-- Radio -->
<g id="node22" class="node"><title>Radio</title>
<polygon fill="none" stroke="black" points="170,-0.5 170,-46.5 249,-46.5 249,-0.5 170,-0.5"/>
<text text-anchor="middle" x="209.5" y="-31.3" font-family="Times,serif" font-size="14.00">class Radio</text>
<polyline fill="none" stroke="black" points="170,-23.5 249,-23.5 "/>
<text text-anchor="middle" x="209.5" y="-8.3" font-family="Times,serif" font-size="14.00"> </text>
</g>
<!-- AbstractItem&#45;&gt;Radio -->
<g id="edge20" class="edge"><title>AbstractItem&#45;&gt;Radio</title>
<path fill="none" stroke="black" d="M304.606,-92.6357C284.239,-78.0447 259.641,-60.4218 240.563,-46.7543"/>
<polygon fill="black" stroke="black" points="302.59,-95.497 312.758,-98.4757 306.667,-89.8066 302.59,-95.497"/>
<text text-anchor="middle" x="306.5" y="-68.8" font-family="Times,serif" font-size="14.00">extends</text>
</g>
<!-- Submenu -->
<g id="node24" class="node"><title>Submenu</title>
<polygon fill="none" stroke="black" points="387.5,-0.5 387.5,-46.5 485.5,-46.5 485.5,-0.5 387.5,-0.5"/>
<text text-anchor="middle" x="436.5" y="-31.3" font-family="Times,serif" font-size="14.00">class Submenu</text>
<polyline fill="none" stroke="black" points="387.5,-23.5 485.5,-23.5 "/>
<text text-anchor="middle" x="436.5" y="-8.3" font-family="Times,serif" font-size="14.00"> </text>
</g>
<!-- AbstractItem&#45;&gt;Submenu -->
<g id="edge23" class="edge"><title>AbstractItem&#45;&gt;Submenu</title>
<path fill="none" stroke="black" d="M373.376,-91.2553C377.143,-87.4898 380.927,-83.6689 384.5,-80 395.094,-69.1221 406.664,-56.8176 416.194,-46.5633"/>
<polygon fill="black" stroke="black" points="370.839,-88.8421 366.213,-98.3735 375.773,-93.8076 370.839,-88.8421"/>
<text text-anchor="middle" x="419.5" y="-68.8" font-family="Times,serif" font-size="14.00">extends</text>
</g>
<!-- Item&#45;&gt;AbstractItem -->
<g id="edge4" class="edge"><title>Item&#45;&gt;AbstractItem</title>
<path fill="none" stroke="black" d="M334.438,-186.276C334.48,-178.632 334.765,-170.516 335.5,-163 336.086,-157.008 337.149,-150.588 338.312,-144.666"/>
<polygon fill="black" stroke="black" points="330.938,-186.333 334.513,-196.306 337.938,-186.28 330.938,-186.333"/>
<text text-anchor="middle" x="368" y="-166.8" font-family="Times,serif" font-size="14.00">implements</text>
</g>
<!-- AbstractMenu -->
<g id="node6" class="node"><title>AbstractMenu</title>
<polygon fill="none" stroke="blue" points="861.5,-98.5 861.5,-144.5 1031.5,-144.5 1031.5,-98.5 861.5,-98.5"/>
<text text-anchor="middle" x="946.5" y="-129.3" font-family="Times,serif" font-size="14.00">abstract class AbstractMenu</text>
<polyline fill="none" stroke="blue" points="861.5,-121.5 1031.5,-121.5 "/>
<text text-anchor="middle" x="946.5" y="-106.3" font-family="Times,serif" font-size="14.00"> </text>
</g>
<!-- ContextMenu -->
<g id="node15" class="node"><title>ContextMenu</title>
<polygon fill="none" stroke="black" points="949.5,-0.5 949.5,-46.5 1071.5,-46.5 1071.5,-0.5 949.5,-0.5"/>
<text text-anchor="middle" x="1010.5" y="-31.3" font-family="Times,serif" font-size="14.00">class ContextMenu</text>
<polyline fill="none" stroke="black" points="949.5,-23.5 1071.5,-23.5 "/>
<text text-anchor="middle" x="1010.5" y="-8.3" font-family="Times,serif" font-size="14.00"> </text>
</g>
<!-- AbstractMenu&#45;&gt;ContextMenu -->
<g id="edge12" class="edge"><title>AbstractMenu&#45;&gt;ContextMenu</title>
<path fill="none" stroke="black" d="M966.941,-89.8383C976.303,-75.7959 987.189,-59.4663 995.737,-46.6449"/>
<polygon fill="black" stroke="black" points="963.979,-87.9724 961.344,-98.2344 969.803,-91.8553 963.979,-87.9724"/>
<text text-anchor="middle" x="1002.5" y="-68.8" font-family="Times,serif" font-size="14.00">extends</text>
</g>
<!-- SubMenu -->
<g id="node28" class="node"><title>SubMenu</title>
<polygon fill="none" stroke="black" points="831.5,-0.5 831.5,-46.5 931.5,-46.5 931.5,-0.5 831.5,-0.5"/>
<text text-anchor="middle" x="881.5" y="-31.3" font-family="Times,serif" font-size="14.00">class SubMenu</text>
<polyline fill="none" stroke="black" points="831.5,-23.5 931.5,-23.5 "/>
<text text-anchor="middle" x="881.5" y="-8.3" font-family="Times,serif" font-size="14.00"> </text>
</g>
<!-- AbstractMenu&#45;&gt;SubMenu -->
<g id="edge27" class="edge"><title>AbstractMenu&#45;&gt;SubMenu</title>
<path fill="none" stroke="black" d="M925.74,-89.8383C916.232,-75.7959 905.175,-59.4663 896.494,-46.6449"/>
<polygon fill="black" stroke="black" points="922.92,-91.9162 931.424,-98.2344 928.716,-87.9916 922.92,-91.9162"/>
<text text-anchor="middle" x="938.5" y="-68.8" font-family="Times,serif" font-size="14.00">extends</text>
</g>
<!-- AbstractPostable&#45;&gt;AbstractMenu -->
<g id="edge5" class="edge"><title>AbstractPostable&#45;&gt;AbstractMenu</title>
<path fill="none" stroke="black" d="M818.403,-191.586C845.899,-176.757 879.609,-158.576 905.545,-144.588"/>
<polygon fill="black" stroke="black" points="816.477,-188.648 809.337,-196.476 819.8,-194.809 816.477,-188.648"/>
<text text-anchor="middle" x="889.5" y="-166.8" font-family="Times,serif" font-size="14.00">extends</text>
</g>
<!-- CloseButton -->
<g id="node14" class="node"><title>CloseButton</title>
<polygon fill="none" stroke="black" points="641.5,-98.5 641.5,-144.5 755.5,-144.5 755.5,-98.5 641.5,-98.5"/>
<text text-anchor="middle" x="698.5" y="-129.3" font-family="Times,serif" font-size="14.00">class CloseButton</text>
<polyline fill="none" stroke="black" points="641.5,-121.5 755.5,-121.5 "/>
<text text-anchor="middle" x="698.5" y="-106.3" font-family="Times,serif" font-size="14.00"> </text>
</g>
<!-- AbstractPostable&#45;&gt;CloseButton -->
<g id="edge11" class="edge"><title>AbstractPostable&#45;&gt;CloseButton</title>
<path fill="none" stroke="black" d="M746.143,-187.838C735.903,-173.796 723.996,-157.466 714.647,-144.645"/>
<polygon fill="black" stroke="black" points="743.545,-190.216 752.265,-196.234 749.201,-186.092 743.545,-190.216"/>
<text text-anchor="middle" x="759.5" y="-166.8" font-family="Times,serif" font-size="14.00">extends</text>
</g>
<!-- Info -->
<g id="node17" class="node"><title>Info</title>
<polygon fill="none" stroke="black" points="774,-98.5 774,-144.5 843,-144.5 843,-98.5 774,-98.5"/>
<text text-anchor="middle" x="808.5" y="-129.3" font-family="Times,serif" font-size="14.00">class Info</text>
<polyline fill="none" stroke="black" points="774,-121.5 843,-121.5 "/>
<text text-anchor="middle" x="808.5" y="-106.3" font-family="Times,serif" font-size="14.00"> </text>
</g>
<!-- AbstractPostable&#45;&gt;Info -->
<g id="edge13" class="edge"><title>AbstractPostable&#45;&gt;Info</title>
<path fill="none" stroke="black" d="M781.775,-186.641C787.511,-172.874 794.082,-157.103 799.273,-144.645"/>
<polygon fill="black" stroke="black" points="778.393,-185.657 777.777,-196.234 784.854,-188.35 778.393,-185.657"/>
<text text-anchor="middle" x="812.5" y="-166.8" font-family="Times,serif" font-size="14.00">extends</text>
</g>
<!-- Popup -->
<g id="node27" class="node"><title>Popup</title>
<polygon fill="none" stroke="black" points="542,-98.5 542,-144.5 623,-144.5 623,-98.5 542,-98.5"/>
<text text-anchor="middle" x="582.5" y="-129.3" font-family="Times,serif" font-size="14.00">class Popup</text>
<polyline fill="none" stroke="black" points="542,-121.5 623,-121.5 "/>
<text text-anchor="middle" x="582.5" y="-106.3" font-family="Times,serif" font-size="14.00"> </text>
</g>
<!-- AbstractPostable&#45;&gt;Popup -->
<g id="edge26" class="edge"><title>AbstractPostable&#45;&gt;Popup</title>
<path fill="none" stroke="black" d="M711.991,-192.137C702.435,-187.519 692.65,-182.689 683.5,-178 662.845,-167.415 640.171,-155.028 621.549,-144.644"/>
<polygon fill="black" stroke="black" points="710.524,-195.315 721.054,-196.488 713.554,-189.005 710.524,-195.315"/>
<text text-anchor="middle" x="704.5" y="-166.8" font-family="Times,serif" font-size="14.00">extends</text>
</g>
<!-- Menu -->
<g id="node8" class="node"><title>Menu</title>
<polygon fill="none" stroke="green" points="881.5,-196.5 881.5,-242.5 981.5,-242.5 981.5,-196.5 881.5,-196.5"/>
<text text-anchor="middle" x="931.5" y="-227.3" font-family="Times,serif" font-size="14.00">interface Menu</text>
<polyline fill="none" stroke="green" points="881.5,-219.5 981.5,-219.5 "/>
<text text-anchor="middle" x="931.5" y="-204.3" font-family="Times,serif" font-size="14.00"> </text>
</g>
<!-- Menu&#45;&gt;AbstractMenu -->
<g id="edge6" class="edge"><title>Menu&#45;&gt;AbstractMenu</title>
<path fill="none" stroke="black" d="M936.541,-186.239C938.677,-172.568 941.112,-156.983 943.04,-144.645"/>
<polygon fill="black" stroke="black" points="933.065,-185.814 934.979,-196.234 939.981,-186.895 933.065,-185.814"/>
<text text-anchor="middle" x="972" y="-166.8" font-family="Times,serif" font-size="14.00">implements</text>
</g>
<!-- AbstractNavigatable -->
<g id="node9" class="node"><title>AbstractNavigatable</title>
<polygon fill="none" stroke="blue" points="592,-392.5 592,-438.5 795,-438.5 795,-392.5 592,-392.5"/>
<text text-anchor="middle" x="693.5" y="-423.3" font-family="Times,serif" font-size="14.00">abstract class AbstractNavigatable</text>
<polyline fill="none" stroke="blue" points="592,-415.5 795,-415.5 "/>
<text text-anchor="middle" x="693.5" y="-400.3" font-family="Times,serif" font-size="14.00"> </text>
</g>
<!-- AbstractNavigatable&#45;&gt;MenuElement -->
<g id="edge25" class="edge"><title>AbstractNavigatable&#45;&gt;MenuElement</title>
<path fill="none" stroke="black" d="M693.5,-381.837C693.5,-368.263 693.5,-352.862 693.5,-340.645"/>
<polygon fill="black" stroke="black" points="690,-382.234 693.5,-392.234 697,-382.234 690,-382.234"/>
<text text-anchor="middle" x="714.5" y="-362.8" font-family="Times,serif" font-size="14.00">extends</text>
</g>
<!-- Navigatable -->
<g id="node10" class="node"><title>Navigatable</title>
<polygon fill="none" stroke="green" points="542,-490.5 542,-536.5 675,-536.5 675,-490.5 542,-490.5"/>
<text text-anchor="middle" x="608.5" y="-521.3" font-family="Times,serif" font-size="14.00">interface Navigatable</text>
<polyline fill="none" stroke="green" points="542,-513.5 675,-513.5 "/>
<text text-anchor="middle" x="608.5" y="-498.3" font-family="Times,serif" font-size="14.00"> </text>
</g>
<!-- Navigatable&#45;&gt;AbstractNavigatable -->
<g id="edge7" class="edge"><title>Navigatable&#45;&gt;AbstractNavigatable</title>
<path fill="none" stroke="black" d="M634.947,-482.631C647.535,-468.413 662.326,-451.708 673.893,-438.645"/>
<polygon fill="black" stroke="black" points="632.223,-480.427 628.214,-490.234 637.464,-485.068 632.223,-480.427"/>
<text text-anchor="middle" x="689" y="-460.8" font-family="Times,serif" font-size="14.00">implements</text>
</g>
<!-- MouseNavigatable -->
<g id="node11" class="node"><title>MouseNavigatable</title>
<polygon fill="none" stroke="green" points="693.5,-490.5 693.5,-536.5 863.5,-536.5 863.5,-490.5 693.5,-490.5"/>
<text text-anchor="middle" x="778.5" y="-521.3" font-family="Times,serif" font-size="14.00">interface MouseNavigatable</text>
<polyline fill="none" stroke="green" points="693.5,-513.5 863.5,-513.5 "/>
<text text-anchor="middle" x="778.5" y="-498.3" font-family="Times,serif" font-size="14.00"> </text>
</g>
<!-- MouseNavigatable&#45;&gt;AbstractNavigatable -->
<g id="edge8" class="edge"><title>MouseNavigatable&#45;&gt;AbstractNavigatable</title>
<path fill="none" stroke="black" d="M752.053,-482.631C739.465,-468.413 724.674,-451.708 713.107,-438.645"/>
<polygon fill="black" stroke="black" points="749.536,-485.068 758.786,-490.234 754.777,-480.427 749.536,-485.068"/>
<text text-anchor="middle" x="774" y="-460.8" font-family="Times,serif" font-size="14.00">implements</text>
</g>
<!-- Postable -->
<g id="node12" class="node"><title>Postable</title>
<polygon fill="none" stroke="green" points="811,-294.5 811,-340.5 924,-340.5 924,-294.5 811,-294.5"/>
<text text-anchor="middle" x="867.5" y="-325.3" font-family="Times,serif" font-size="14.00">interface Postable</text>
<polyline fill="none" stroke="green" points="811,-317.5 924,-317.5 "/>
<text text-anchor="middle" x="867.5" y="-302.3" font-family="Times,serif" font-size="14.00"> </text>
</g>
<!-- Postable&#45;&gt;AbstractPostable -->
<g id="edge10" class="edge"><title>Postable&#45;&gt;AbstractPostable</title>
<path fill="none" stroke="black" d="M837.104,-287.025C822.355,-272.723 804.933,-255.829 791.337,-242.645"/>
<polygon fill="black" stroke="black" points="834.923,-289.786 844.539,-294.234 839.796,-284.76 834.923,-289.786"/>
<text text-anchor="middle" x="857" y="-264.8" font-family="Times,serif" font-size="14.00">implements</text>
</g>
<!-- Postable&#45;&gt;Menu -->
<g id="edge24" class="edge"><title>Postable&#45;&gt;Menu</title>
<path fill="none" stroke="black" d="M887.941,-285.838C897.303,-271.796 908.189,-255.466 916.737,-242.645"/>
<polygon fill="black" stroke="black" points="884.979,-283.972 882.344,-294.234 890.803,-287.855 884.979,-283.972"/>
<text text-anchor="middle" x="923.5" y="-264.8" font-family="Times,serif" font-size="14.00">extends</text>
</g>
<!-- ClassPrefix -->
<g id="node13" class="node"><title>ClassPrefix</title>
<polygon fill="none" stroke="black" points="882,-490.5 882,-536.5 991,-536.5 991,-490.5 882,-490.5"/>
<text text-anchor="middle" x="936.5" y="-521.3" font-family="Times,serif" font-size="14.00">class ClassPrefix</text>
<polyline fill="none" stroke="black" points="882,-513.5 991,-513.5 "/>
<text text-anchor="middle" x="936.5" y="-498.3" font-family="Times,serif" font-size="14.00"> </text>
</g>
<!-- Element -->
<g id="node16" class="node"><title>Element</title>
<polygon fill="none" stroke="green" points="279,-294.5 279,-340.5 392,-340.5 392,-294.5 279,-294.5"/>
<text text-anchor="middle" x="335.5" y="-325.3" font-family="Times,serif" font-size="14.00">interface Element</text>
<polyline fill="none" stroke="green" points="279,-317.5 392,-317.5 "/>
<text text-anchor="middle" x="335.5" y="-302.3" font-family="Times,serif" font-size="14.00"> </text>
</g>
<!-- Element&#45;&gt;Item -->
<g id="edge15" class="edge"><title>Element&#45;&gt;Item</title>
<path fill="none" stroke="black" d="M335.5,-283.837C335.5,-270.263 335.5,-254.862 335.5,-242.645"/>
<polygon fill="black" stroke="black" points="332,-284.234 335.5,-294.234 339,-284.234 332,-284.234"/>
<text text-anchor="middle" x="356.5" y="-264.8" font-family="Times,serif" font-size="14.00">extends</text>
</g>
<!-- VariableItem -->
<g id="node19" class="node"><title>VariableItem</title>
<polygon fill="none" stroke="green" points="11.5,-98.5 11.5,-144.5 151.5,-144.5 151.5,-98.5 11.5,-98.5"/>
<text text-anchor="middle" x="81.5" y="-129.3" font-family="Times,serif" font-size="14.00">interface VariableItem</text>
<polyline fill="none" stroke="green" points="11.5,-121.5 151.5,-121.5 "/>
<text text-anchor="middle" x="81.5" y="-106.3" font-family="Times,serif" font-size="14.00"> </text>
</g>
<!-- VariableItem&#45;&gt;Checkbox -->
<g id="edge17" class="edge"><title>VariableItem&#45;&gt;Checkbox</title>
<path fill="none" stroke="black" d="M44.6778,-90.5428C42.2266,-87.2319 40.1009,-83.7071 38.5,-80 33.9663,-69.5018 36.0051,-57.1222 39.591,-46.7217"/>
<polygon fill="black" stroke="black" points="42.1669,-92.9918 51.3277,-98.3144 47.4855,-88.4407 42.1669,-92.9918"/>
<text text-anchor="middle" x="71" y="-68.8" font-family="Times,serif" font-size="14.00">implements</text>
</g>
<!-- VariableItem&#45;&gt;Radio -->
<g id="edge21" class="edge"><title>VariableItem&#45;&gt;Radio</title>
<path fill="none" stroke="black" d="M102.098,-90.2805C109.127,-81.3955 117.505,-72.1518 126.5,-65 139.427,-54.7222 155.388,-46.1587 169.848,-39.5937"/>
<polygon fill="black" stroke="black" points="99.2938,-88.1854 96.0422,-98.269 104.872,-92.414 99.2938,-88.1854"/>
<text text-anchor="middle" x="159" y="-68.8" font-family="Times,serif" font-size="14.00">implements</text>
</g>
<!-- MenuStore -->
<g id="node25" class="node"><title>MenuStore</title>
<polygon fill="none" stroke="black" points="1009,-490.5 1009,-536.5 1116,-536.5 1116,-490.5 1009,-490.5"/>
<text text-anchor="middle" x="1062.5" y="-521.3" font-family="Times,serif" font-size="14.00">class MenuStore</text>
<polyline fill="none" stroke="black" points="1009,-513.5 1116,-513.5 "/>
<text text-anchor="middle" x="1062.5" y="-498.3" font-family="Times,serif" font-size="14.00"> </text>
</g>
<!-- KEY -->
<g id="node26" class="node"><title>KEY</title>
<polygon fill="none" stroke="magenta" points="1134,-490.5 1134,-536.5 1213,-536.5 1213,-490.5 1134,-490.5"/>
<text text-anchor="middle" x="1173.5" y="-521.3" font-family="Times,serif" font-size="14.00">enum KEY</text>
<polyline fill="none" stroke="magenta" points="1134,-513.5 1213,-513.5 "/>
<text text-anchor="middle" x="1173.5" y="-498.3" font-family="Times,serif" font-size="14.00"> </text>
</g>
<!-- Variable -->
<g id="node29" class="node"><title>Variable</title>
<polygon fill="none" stroke="black" points="1231,-490.5 1231,-536.5 1324,-536.5 1324,-490.5 1231,-490.5"/>
<text text-anchor="middle" x="1277.5" y="-521.3" font-family="Times,serif" font-size="14.00">class Variable</text>
<polyline fill="none" stroke="black" points="1231,-513.5 1324,-513.5 "/>
<text text-anchor="middle" x="1277.5" y="-498.3" font-family="Times,serif" font-size="14.00"> </text>
</g>
<!-- VariablePool -->
<g id="node30" class="node"><title>VariablePool</title>
<polygon fill="none" stroke="black" points="1342.5,-490.5 1342.5,-536.5 1460.5,-536.5 1460.5,-490.5 1342.5,-490.5"/>
<text text-anchor="middle" x="1401.5" y="-521.3" font-family="Times,serif" font-size="14.00">class VariablePool</text>
<polyline fill="none" stroke="black" points="1342.5,-513.5 1460.5,-513.5 "/>
<text text-anchor="middle" x="1401.5" y="-498.3" font-family="Times,serif" font-size="14.00"> </text>
</g>
</g>
</svg>
